<svg width="18" height="14" viewBox="0 0 18 14" fill="none" xmlns="http://www.w3.org/2000/svg">
<path d="M11.1241 7.57422H6.87584C5.26452 7.57422 3.95825 8.88144 3.95825 10.4939V14H14.0416V10.4939C14.0416 8.88139 12.7354 7.57422 11.1241 7.57422Z" fill="#9A9A9A"/>
<path d="M11.8381 2.79757C11.8381 4.34261 10.5865 6.32813 9.0426 6.32813C7.49869 6.32813 6.24707 4.34266 6.24707 2.79757C6.24707 1.25248 7.49869 0 9.0426 0C10.5865 0 11.8381 1.25253 11.8381 2.79757Z" fill="#9A9A9A"/>
<path d="M16.4781 3.86778C16.4781 4.93491 15.6136 6.30625 14.5473 6.30625C13.4809 6.30625 12.6165 4.93491 12.6165 3.86778C12.6165 2.80065 13.4809 1.93555 14.5473 1.93555C15.6136 1.93555 16.4781 2.80065 16.4781 3.86778Z" fill="#9A9A9A"/>
<path d="M5.44245 3.86778C5.44245 4.93491 4.57798 6.30625 3.51163 6.30625C2.44528 6.30625 1.58081 4.93491 1.58081 3.86778C1.58081 2.80065 2.44528 1.93555 3.51163 1.93555C4.57798 1.93555 5.44245 2.80065 5.44245 3.86778Z" fill="#9A9A9A"/>
<path d="M15.9848 7.16797H13.0506C12.9838 7.16797 12.9177 7.1714 12.8525 7.17779C14.0465 7.80342 14.8635 9.05494 14.8635 10.4945V11.6062H18V9.18458C17.9999 8.07083 17.0977 7.16797 15.9848 7.16797Z" fill="#9A9A9A"/>
<path d="M3.13648 10.4945C3.13648 9.05494 3.9535 7.80342 5.14742 7.17779C5.08224 7.1714 5.01618 7.16797 4.94935 7.16797H2.01514C0.902206 7.16797 0 8.07083 0 9.18458V11.6062H3.13648V10.4945Z" fill="#9A9A9A"/>
</svg>
