<svg width="16" height="15" viewBox="0 0 16 15" fill="none" xmlns="http://www.w3.org/2000/svg">
<path d="M5.05472 7.69107C6.61316 7.69107 7.87653 6.06533 7.87653 4.05989C7.87653 2.05445 6.61316 0.428711 5.05472 0.428711C3.49628 0.428711 2.23291 2.05445 2.23291 4.05989C2.23291 6.06533 3.49628 7.69107 5.05472 7.69107Z" fill="currentColor"/>
<path d="M5.0547 14.8798C7.10058 14.8798 8.92596 14.4034 10.1094 13.6613C9.26927 10.9494 7.32387 9.0498 5.0547 9.0498C2.78553 9.0498 0.840123 10.9494 0 13.6613C1.18622 14.4034 3.00881 14.8798 5.0547 14.8798Z" fill="currentColor"/>
<path d="M12.0619 8.08761C13.2766 8.08761 14.2613 6.82148 14.2613 5.25962C14.2613 3.69777 13.2766 2.43164 12.0619 2.43164C10.8473 2.43164 9.86255 3.69777 9.86255 5.25962C9.86255 6.82148 10.8473 8.08761 12.0619 8.08761Z" fill="currentColor"/>
<path d="M12.0618 9.14746C11.1128 9.14746 10.2392 9.57502 9.53027 10.2988C10.2197 11.1295 10.7779 12.1678 11.1491 13.3681L11.2384 13.6551C11.5064 13.6765 11.7799 13.6918 12.0618 13.6918C13.6555 13.6918 15.079 13.3192 16.0001 12.742C15.3442 10.6256 13.8286 9.14746 12.0618 9.14746Z" fill="currentColor"/>
</svg>
