<svg width="16" height="18" viewBox="0 0 16 18" fill="none" xmlns="http://www.w3.org/2000/svg">
<path d="M14.539 0L1.46101 1.21173e-05C0.653801 1.21173e-05 0 0.720173 0 1.60931V8.19536L10.0464 8.19535L7.48963 5.37908C7.18282 5.04112 7.18282 4.49396 7.48963 4.15601C7.79644 3.81806 8.29318 3.81806 8.59999 4.15601L12.4424 8.38846C12.7493 8.72641 12.7493 9.27357 12.4424 9.61153L8.59999 13.844C8.44659 14.013 8.2457 14.0974 8.04481 14.0974C7.84392 14.0974 7.64304 14.013 7.48963 13.844C7.18282 13.506 7.18282 12.9589 7.48963 12.6209L10.0464 9.80464L0 9.80466V16.3907C0 17.2798 0.653801 18 1.46101 18L14.539 18C15.3462 18 16 17.2798 16 16.3907V1.6093C16 0.72016 15.3462 0 14.539 0Z" fill="currentColor"/>
</svg>
