<svg width="15" height="17" viewBox="0 0 15 17" fill="none" xmlns="http://www.w3.org/2000/svg">
<path d="M10.2182 7.06928C10.2182 8.44262 9.13741 9.55974 7.80951 9.55974C6.48162 9.55974 5.40129 8.44219 5.40129 7.06928C5.40129 5.69594 6.48162 4.57882 7.80951 4.57882C7.91945 4.57882 8.02679 4.58921 8.13283 4.60393L9.5118 3.22496C8.99198 2.98474 8.41676 2.84754 7.80995 2.84754C5.52768 2.84754 3.67001 4.74113 3.67001 7.06928C3.67001 9.397 5.52724 11.291 7.80995 11.291C10.0926 11.291 11.9499 9.39656 11.9499 7.06928C11.9499 6.47934 11.8296 5.91754 11.6145 5.40724L10.206 6.81565C10.2143 6.89875 10.2182 6.98358 10.2182 7.06928ZM12.1364 12.6475C13.8015 11.3529 14.8788 9.33683 14.8792 7.06928C14.8792 6.29713 14.7502 5.55613 14.5204 4.86016L14.1361 5.2445C13.8543 5.52627 13.4795 5.68122 13.0813 5.68122C13.0389 5.68122 12.9973 5.673 12.9553 5.66953C13.0774 6.11664 13.1479 6.58409 13.1479 7.06928C13.1475 10.0129 10.7527 12.4073 7.80951 12.4077C4.86589 12.4077 2.47152 10.0129 2.47152 7.06928C2.47152 4.12609 4.86589 1.73129 7.80951 1.73129C8.37002 1.73129 8.91018 1.81915 9.41831 1.98016C9.42697 1.60317 9.57543 1.23527 9.85157 0.959133L10.3359 0.474806C9.54989 0.172696 8.70026 0 7.80951 0C3.91152 0 0.740234 3.17129 0.740234 7.06928C0.740234 9.48789 1.96252 11.6252 3.82063 12.9003L2.6572 16.0027C2.53125 16.3386 2.70135 16.713 3.03722 16.8385C3.11167 16.8671 3.18914 16.8801 3.26488 16.8801C3.52761 16.8801 3.77518 16.719 3.87257 16.4585L4.96804 13.5374C5.71292 13.8659 6.52447 14.0645 7.37669 14.1165V16.2308C7.37669 16.5896 7.66755 16.8801 8.02593 16.8801C8.3843 16.8801 8.67516 16.5896 8.67516 16.2308V14.0801C9.50964 13.9775 10.2982 13.7291 11.0176 13.3608L12.1793 16.4589C12.2767 16.7195 12.5242 16.8801 12.787 16.8801C12.8627 16.8801 12.9402 16.8666 13.0146 16.8385C13.3505 16.7126 13.5206 16.3386 13.3946 16.0027L12.1364 12.6475Z" fill="currentColor"/>
<path d="M14.7372 2.29833L13.5063 1.82483C13.3981 1.78328 13.3124 1.69758 13.2708 1.58937L12.7973 0.358426C12.7324 0.189625 12.5744 0.0957031 12.4139 0.0957031C12.3108 0.0957031 12.207 0.134224 12.1252 0.216028L10.6168 1.72441C10.5021 1.83911 10.4662 2.01007 10.5242 2.16113L10.9211 3.19298L8.33062 5.78342C8.16961 5.71806 7.99432 5.6804 7.80993 5.6804C7.04341 5.6804 6.42188 6.30237 6.42188 7.06933C6.42188 7.83629 7.04341 8.45825 7.80993 8.45825C8.57646 8.45825 9.19799 7.83629 9.19799 7.06933C9.19799 6.88495 9.16034 6.71009 9.09498 6.54908L11.5898 4.05429L12.9345 4.57151C12.9822 4.58969 13.0324 4.59878 13.0817 4.59878C13.1886 4.59878 13.2934 4.55723 13.3717 4.47889L14.8801 2.97051C15.0896 2.76102 15.0138 2.40481 14.7372 2.29833Z" fill="currentColor"/>
</svg>
