<svg width="20" height="20" viewBox="0 0 20 20" fill="none" xmlns="http://www.w3.org/2000/svg">
<g clip-path="url(#clip0_653_190)">
<path d="M11.4472 15.5352H8.49345C7.37309 15.5352 6.46484 16.4434 6.46484 17.5638V19.9998H13.4758V17.5638C13.4758 16.4434 12.5676 15.5352 11.4472 15.5352Z" fill="currentColor"/>
<path d="M11.9436 12.2172C11.9436 13.2907 11.0734 14.6702 9.99989 14.6702C8.92637 14.6702 8.05615 13.2907 8.05615 12.2172C8.05615 11.1437 8.9264 10.2734 9.99989 10.2734C11.0734 10.2734 11.9436 11.1437 11.9436 12.2172Z" fill="currentColor"/>
<path d="M17.9714 5.26172H15.0176C13.8973 5.26172 12.989 6.16997 12.989 7.29032V9.72634H20V7.29032C20 6.16994 19.0918 5.26172 17.9714 5.26172Z" fill="currentColor"/>
<path d="M18.4678 1.94374C18.4678 3.01722 17.5976 4.39675 16.5241 4.39675C15.4505 4.39675 14.5803 3.01726 14.5803 1.94374C14.5803 0.870218 15.4506 0 16.5241 0C17.5975 0 18.4678 0.870252 18.4678 1.94374Z" fill="currentColor"/>
<path d="M4.98239 5.26172H2.02861C0.908251 5.26172 0 6.16994 0 7.29032V9.72634H7.011V7.29032C7.011 6.16994 6.10275 5.26172 4.98239 5.26172Z" fill="currentColor"/>
<path d="M5.47875 1.94374C5.47875 3.01722 4.6085 4.39675 3.53501 4.39675C2.46153 4.39675 1.59131 3.01722 1.59131 1.94374C1.59131 0.870252 2.46153 0 3.53505 0C4.60856 0 5.47875 0.870252 5.47875 1.94374Z" fill="currentColor"/>
<path d="M5.50783 15.8236C4.05536 14.7005 3.03285 13.0472 2.73325 11.1562H1.95093C2.19609 12.8895 2.99112 14.49 4.25084 15.7497C4.54515 16.044 4.85822 16.3128 5.18711 16.5553C5.26603 16.2974 5.37405 16.0521 5.50783 15.8236Z" fill="currentColor"/>
<path d="M6.58936 3.4818C7.60952 2.94582 8.76986 2.64189 10 2.64189C11.2608 2.64189 12.4485 2.96084 13.4868 3.52199C13.3495 3.198 13.2513 2.85964 13.1982 2.52044C12.2007 2.09368 11.1177 1.86914 10 1.86914C8.90623 1.86914 7.84551 2.0839 6.86573 2.49305C6.81577 2.82739 6.72146 3.16131 6.58936 3.4818Z" fill="currentColor"/>
<path d="M17.2667 11.1562C16.9643 13.065 15.9253 14.7316 14.4509 15.8552C14.5823 16.0852 14.6879 16.3316 14.7641 16.5906C15.1108 16.3389 15.4403 16.0585 15.7491 15.7497C17.0088 14.49 17.8039 12.8895 18.049 11.1562H17.2667Z" fill="currentColor"/>
</g>
<defs>
<clipPath id="clip0_653_190">
<rect width="20" height="20" fill="currentColor"/>
</clipPath>
</defs>
</svg>
