<svg width="16" height="17" viewBox="0 0 16 17" fill="none" xmlns="http://www.w3.org/2000/svg">
<g clip-path="url(#clip0_1_14627)">
<path d="M8.00214 16.9995C7.46981 16.9995 6.9289 16.9477 6.39656 16.844C6.3107 16.8268 6.23772 16.7706 6.20338 16.6886L5.38771 14.7493C4.80386 14.5031 4.26295 14.1748 3.76925 13.7775L1.68715 13.9762C1.60129 13.9848 1.51543 13.9502 1.45962 13.8811C0.828548 13.1037 0.339147 12.2269 0.012879 11.2767C-0.012879 11.1903 0 11.0996 0.051516 11.0305L1.31366 9.3504C1.27931 9.06534 1.26214 8.78028 1.26214 8.50385C1.26214 8.15833 1.2879 7.80848 1.34371 7.45863L0.12879 5.73531C0.0772739 5.66188 0.0686879 5.57118 0.0987389 5.48912C0.450765 4.55187 0.965924 3.69237 1.62275 2.92789C1.67856 2.8631 1.76871 2.82855 1.85457 2.83719L3.93238 3.09633C4.43896 2.70761 4.99275 2.39664 5.5766 2.17205L6.44808 0.258681C6.48672 0.176618 6.5597 0.12047 6.64556 0.107513C7.63724 -0.0522942 8.62892 -0.0393369 9.60773 0.150704C9.69359 0.16798 9.76657 0.224129 9.80091 0.306192L10.6166 2.24547C11.2004 2.49166 11.7413 2.81991 12.235 3.21727L14.3171 3.02291C14.403 3.01427 14.4889 3.04882 14.5447 3.11793C15.1757 3.89537 15.6651 4.77215 15.9914 5.72235C16.0215 5.80441 16.0043 5.89943 15.9528 5.96854L14.6906 7.64867C14.725 7.93373 14.7422 8.21879 14.7422 8.49522C14.7422 8.84074 14.7164 9.19059 14.6606 9.54044L15.8712 11.2594C15.9227 11.3329 15.9313 11.4236 15.9013 11.5056C15.5492 12.4429 15.0341 13.3024 14.3772 14.0669C14.3214 14.1316 14.2313 14.1662 14.1454 14.1576L12.0676 13.8984C11.561 14.2871 11.0072 14.5981 10.4234 14.8227L9.55192 16.7361C9.51328 16.8181 9.4403 16.8743 9.35444 16.8872C8.90797 16.965 8.44862 16.9995 8.00214 16.9995ZM8.00214 4.71168C5.92434 4.71168 4.23719 6.41341 4.23719 8.49953C4.23719 10.5857 5.92863 12.2874 8.00214 12.2874C10.08 12.2874 11.7671 10.5857 11.7671 8.49953C11.7671 6.41341 10.0757 4.71168 8.00214 4.71168Z" fill="currentColor"/>
</g>
<defs>
<clipPath id="clip0_1_14627">
<rect width="16" height="17" fill="white"/>
</clipPath>
</defs>
</svg>
