<svg width="16" height="17" viewBox="0 0 16 17" fill="none" xmlns="http://www.w3.org/2000/svg">
<g clip-path="url(#clip0_1_14586)">
<path d="M14.6305 0H1.37376C0.613899 0 0 0.628653 0 1.40678V12.6434C0 13.4215 0.613899 14.0502 1.37376 14.0502H5.12155L8.00215 17.0044L10.8827 14.0502H14.6305C15.3861 14.0502 16.0043 13.4215 16.0043 12.6434V1.40678C16 0.628653 15.3861 0 14.6305 0ZM8.58599 11.3861C8.54736 11.4784 8.49155 11.5619 8.42286 11.6323C8.35417 11.7026 8.26831 11.7598 8.16957 11.7993C8.07083 11.8389 7.95922 11.8609 7.83901 11.8609C7.7231 11.8609 7.61578 11.8389 7.51704 11.7993C7.4183 11.7554 7.33244 11.7026 7.26375 11.6279C7.19506 11.5575 7.13925 11.474 7.10062 11.3817C7.06198 11.2894 7.04051 11.1883 7.04051 11.0871C7.04051 10.9816 7.05769 10.8761 7.09632 10.7838C7.13496 10.6871 7.18648 10.6036 7.25946 10.5332C7.33244 10.4629 7.41401 10.4057 7.51274 10.3618C7.61148 10.3178 7.71881 10.3002 7.83901 10.3002C7.95922 10.3002 8.06654 10.3222 8.16957 10.3618C8.26831 10.4057 8.35417 10.4585 8.42286 10.5332C8.49155 10.6036 8.54736 10.6871 8.58599 10.7838C8.62463 10.8805 8.6461 10.9816 8.6461 11.0871C8.6461 11.1927 8.62463 11.2938 8.58599 11.3861ZM10.3976 6.61184C10.3161 6.80528 10.213 6.97673 10.0885 7.1262C9.95975 7.27567 9.81808 7.41634 9.66354 7.53944C9.50469 7.66253 9.35015 7.78562 9.19131 7.90872C9.06681 8.00543 8.95948 8.09775 8.86504 8.18568C8.77059 8.278 8.68903 8.36592 8.62034 8.45824C8.55165 8.55056 8.50443 8.64727 8.47008 8.74399C8.43574 8.8451 8.41857 8.95061 8.41857 9.06931V9.34626H7.19506V9.06051C7.19506 8.8451 7.21653 8.65167 7.26375 8.47143C7.30668 8.29118 7.37108 8.12852 7.44835 7.97905C7.52562 7.82958 7.62007 7.68891 7.72739 7.56142C7.83472 7.42953 7.95492 7.30644 8.07942 7.18774C8.2125 7.06025 8.34559 6.95035 8.47008 6.84924C8.59458 6.74813 8.71049 6.65141 8.81352 6.55909C8.91226 6.46677 8.99812 6.37006 9.05822 6.27334C9.11833 6.17662 9.15267 6.06672 9.15267 5.94802C9.15267 5.62271 9.05393 5.37212 8.86075 5.18748C8.66756 5.00724 8.37993 4.91932 7.99785 4.91932C7.62436 4.91932 7.34102 5.01164 7.14355 5.20067C6.95036 5.38971 6.85162 5.66227 6.85162 6.02715H5.49074C5.49074 5.67106 5.54226 5.35014 5.64958 5.06879C5.75691 4.78743 5.91575 4.54564 6.12611 4.34342C6.33646 4.1412 6.60263 3.98733 6.9246 3.88182C7.24229 3.77631 7.61578 3.71916 8.04508 3.71916C8.40139 3.71916 8.72766 3.77192 9.03247 3.87742C9.33727 3.98293 9.59485 4.1324 9.81808 4.32583C10.037 4.51927 10.213 4.75226 10.3375 5.02483C10.462 5.29739 10.5264 5.60073 10.5264 5.93923C10.5178 6.19421 10.4749 6.41841 10.3976 6.61184Z" fill="currentColor"/>
</g>
<defs>
<clipPath id="clip0_1_14586">
<rect width="16" height="17" fill="white"/>
</clipPath>
</defs>
</svg>
