<svg width="17" height="18" viewBox="0 0 17 18" fill="none" xmlns="http://www.w3.org/2000/svg">
<path d="M13.9852 1.20008C13.9852 1.19112 13.9856 1.18225 13.9863 1.1735C13.9985 1.02508 14.1161 0.908637 14.2595 0.908637H15.2351C15.472 0.908637 15.6642 0.705191 15.6642 0.454318C15.6642 0.203446 15.472 0 15.2351 0H10.9134C10.3793 0 9.81329 0.0722703 8.75409 0.585755C8.71827 0.60312 8.67933 0.612109 8.63993 0.612109H5.52834C5.59124 0.748833 5.62654 0.902413 5.62654 1.06471V4.69547H6.06342C6.07411 4.69547 6.08466 4.69612 6.09503 4.69738H8.89265C8.99692 4.69738 9.09216 4.75999 9.13841 4.85893C9.49036 5.61198 10.2202 6.12915 11.0652 6.12915H12.0147V5.66725C12.0147 5.59707 12.0383 5.5327 12.0774 5.48251C12.1277 5.41768 12.204 5.37633 12.2894 5.37633H15.9932C16.2232 5.37633 16.4111 5.18459 16.4218 4.94385V4.92264L16.4221 4.90875C16.4159 4.67941 16.2491 4.49259 16.0366 4.46999H14.2594C14.1079 4.46999 13.9852 4.34002 13.9852 4.17969C13.9852 4.15823 13.9874 4.1373 13.9915 4.11717C14.0177 3.98574 14.1279 3.8871 14.2598 3.8871H15.9932C16.0153 3.8871 16.0371 3.88787 16.0588 3.88939H16.5582C16.7951 3.88939 16.9873 3.68595 16.9873 3.43507C16.9873 3.1842 16.7951 2.98076 16.5582 2.98076H14.2594C14.1079 2.98076 13.9852 2.85079 13.9852 2.69046C13.9852 2.53013 14.1079 2.39901 14.2594 2.39901H15.9287C16.1656 2.39901 16.3578 2.19557 16.3578 1.9447C16.3578 1.69382 16.1656 1.49038 15.9287 1.49038H14.2594C14.1079 1.49038 13.9852 1.36041 13.9852 1.20008Z" fill="currentColor"/>
<path d="M5.07812 1.05972L5.07805 1.06643V4.98768C5.07805 5.14801 5.20081 5.27798 5.35225 5.27798H5.78922V6.28191C5.78922 7.17654 5.30073 7.9492 4.58945 8.32182C4.49599 8.37078 4.43686 8.47162 4.43686 8.58201V11.567C4.43666 11.5715 4.43656 11.576 4.43656 11.5805V12.04H1.00728C0.990761 12.04 0.974583 12.0415 0.958867 12.0445C0.822807 12.0515 0.694048 12.088 0.57816 12.148V8.84956C0.57816 8.80785 0.56967 8.76663 0.553268 8.7287C0.0682621 7.60731 0 7.00809 0 6.44256V1.86718C0 1.61606 0.192209 1.41267 0.429121 1.41267C0.664906 1.41267 0.856338 1.6141 0.858228 1.86326V2.89925L0.858284 2.90518C0.86096 3.06306 0.98268 3.19017 1.13244 3.19017C1.28387 3.19017 1.40664 3.0602 1.40664 2.89987V1.86698L1.40662 1.86136V1.1321C1.40662 0.881231 1.59878 0.677785 1.83574 0.677785C2.07153 0.677785 2.26296 0.87922 2.26485 1.12838V2.89976C2.26485 3.06009 2.38761 3.19006 2.53905 3.19006C2.68639 3.19006 2.80659 3.06701 2.81298 2.91268L2.81326 2.89944V1.1321L2.81324 1.12648V0.465982C2.81324 0.215109 3.0054 0.0116634 3.24236 0.0116634C3.47932 0.0116634 3.67148 0.215109 3.67148 0.465982V2.89976C3.67148 2.92481 3.67448 2.94912 3.68012 2.97231C3.68128 2.9771 3.68256 2.98185 3.68395 2.98655C3.71877 3.10453 3.82279 3.19017 3.94571 3.19017C4.09714 3.19017 4.21991 3.0602 4.21991 2.89987V1.06471C4.21991 0.822192 4.39949 0.623992 4.62552 0.611066C4.63324 0.611757 4.64104 0.612109 4.64893 0.612109H4.68655C4.9044 0.632098 5.07573 0.824496 5.07812 1.05972Z" fill="currentColor"/>
<path d="M0.578072 13.0826C0.580266 13.3264 0.76394 13.5243 0.992925 13.5323H2.7406C2.89203 13.5323 3.0148 13.6622 3.0148 13.8226C3.0148 13.8445 3.01249 13.8659 3.00813 13.8865C2.98071 14.0162 2.87132 14.1131 2.74055 14.1131H1.00717L0.985656 14.1129H0.441802C0.204842 14.1129 0.0126804 14.3163 0.0126804 14.5672C0.0126804 14.818 0.204842 15.0215 0.441802 15.0215H1.01884C1.03626 15.0205 1.05379 15.02 1.07144 15.02H2.74076C2.89219 15.02 3.01495 15.15 3.01495 15.3103C3.01495 15.3218 3.01433 15.3331 3.01311 15.3442C2.9979 15.4892 2.8817 15.6021 2.7406 15.6021H1.03664C0.815949 15.6208 0.642317 15.8165 0.642317 16.0549C0.642317 16.3058 0.834479 16.5092 1.07144 16.5092H2.74057C2.89201 16.5092 3.01477 16.6392 3.01477 16.7995L3.0147 16.8059C3.01225 16.964 2.89045 17.0914 2.74055 17.0914H1.76495C1.52799 17.0914 1.33583 17.2948 1.33583 17.5457C1.33583 17.7966 1.52799 18 1.76495 18H6.08657C6.62073 18 7.18672 17.9277 8.24592 17.4142C8.28174 17.3969 8.32067 17.3879 8.36007 17.3879H11.4729C11.4093 17.2506 11.3736 17.0962 11.3736 16.933V13.3026H8.10754C8.00327 13.3026 7.90803 13.24 7.86179 13.1411C7.50983 12.388 6.78002 11.8708 5.93501 11.8708H4.98525V12.3303C4.98525 12.3403 4.98478 12.3501 4.98385 12.3598C4.97134 12.5078 4.85385 12.6239 4.71076 12.6239H1.00717C0.77346 12.6239 0.583324 12.8218 0.57816 13.0679V13.0749C0.57816 13.0775 0.578135 13.08 0.578072 13.0826Z" fill="currentColor"/>
<path d="M12.3512 17.3874C12.1163 17.3874 11.9254 17.1875 11.9221 16.9396L11.9221 16.9334V13.0123C11.9221 12.9916 11.9201 12.9713 11.9162 12.9518C11.8901 12.8202 11.7798 12.7215 11.6478 12.7215H11.2108V11.7156C11.2108 10.821 11.6993 10.0483 12.4106 9.67573C12.504 9.62677 12.5631 9.52593 12.5631 9.41554V6.43689C12.5635 6.43112 12.5636 6.42531 12.5636 6.41945V5.95755H15.9925L16.0038 5.95731L16.0136 5.9567C16.1598 5.95353 16.2982 5.91636 16.4218 5.85237V9.14799C16.4218 9.1897 16.4303 9.23092 16.4467 9.26885C16.9317 10.3902 17 10.9895 17 11.555V16.1304C17 16.3812 16.8078 16.5847 16.5709 16.5847C16.3339 16.5847 16.1418 16.3812 16.1418 16.1304V15.0975L16.1415 15.0852C16.1362 14.9298 16.0155 14.8056 15.8675 14.8056C15.7161 14.8056 15.5933 14.9356 15.5933 15.0959V16.8632C15.5933 17.1141 15.4011 17.3176 15.1642 17.3176C14.9283 17.3176 14.7369 17.116 14.7351 16.8667L14.7351 15.0959C14.7351 14.9356 14.6123 14.8056 14.4609 14.8056C14.3094 14.8056 14.1867 14.9356 14.1867 15.0959V16.8632L14.1867 16.8685V17.5297C14.1867 17.7806 13.9945 17.984 13.7576 17.984C13.5206 17.984 13.3284 17.7806 13.3284 17.5297V16.9558L13.3287 16.933V15.0979C13.3287 15.0853 13.3279 15.0729 13.3265 15.0608C13.3101 14.917 13.1945 14.8056 13.0542 14.8056C12.9028 14.8056 12.78 14.9356 12.78 15.0959V16.9481C12.7725 17.192 12.5834 17.3874 12.3512 17.3874Z" fill="currentColor"/>
</svg>
