<svg width="18" height="17" viewBox="0 0 18 17" fill="none" xmlns="http://www.w3.org/2000/svg">
<path d="M15.2412 6.15691L14.5166 5.80094L14.3906 4.98403C14.3471 4.70149 14.1574 4.64091 13.966 4.84836L13.4134 5.44787L12.6204 5.31884C12.3465 5.27445 12.2317 5.44206 12.3643 5.69307L12.7473 6.41954L12.3832 7.15679C12.2575 7.41153 12.3763 7.57582 12.6494 7.52396L13.4384 7.37336L14.0063 7.95794C14.2025 8.15999 14.391 8.09402 14.4272 7.81065L14.5323 6.99042L15.2472 6.61495C15.4941 6.48509 15.4917 6.27972 15.2412 6.15691ZM5.17334 5.26822L4.36419 5.39974L3.80033 4.78778C3.60499 4.57619 3.41126 4.63801 3.36696 4.92636L3.23848 5.75986L2.499 6.12331C2.24365 6.24902 2.24083 6.45853 2.49296 6.59088L3.22277 6.97382L3.3299 7.81065C3.36696 8.09983 3.55907 8.16704 3.75965 7.96084L4.33922 7.36465L5.14434 7.51816C5.42265 7.57126 5.54429 7.40365 5.41581 7.14393L5.04446 6.39174L5.43514 5.65033C5.57006 5.39393 5.45246 5.223 5.17334 5.26822Z" fill="currentColor"/>
<path d="M5.57293 2.68473H6.01757V3.45103C6.01757 4.32976 6.59634 5.21098 7.26372 5.76859C7.26573 5.77025 7.26775 5.77232 7.27016 5.77398C7.70917 6.13701 7.99433 6.66018 7.99433 7.24019V7.27297C8.36326 7.25057 8.73179 7.23563 9.09951 7.23563C9.32908 7.23563 9.55745 7.24268 9.78501 7.2514V7.24019C9.78501 6.66018 10.0702 6.13701 10.5092 5.77398C10.5112 5.77232 10.5136 5.77025 10.5156 5.76859C11.1826 5.21098 11.7618 4.32976 11.7618 3.45103V2.68473H12.2064C12.5399 2.68473 12.8106 2.40593 12.8106 2.0624C12.8106 1.71888 12.5399 1.44007 12.2064 1.44007H11.761V0.246443C11.761 0.11036 11.6538 0 11.5217 0H6.25681C6.12471 0 6.01757 0.11036 6.01757 0.246443V1.44007H5.57293C5.23944 1.44007 4.96878 1.71888 4.96878 2.0624C4.96878 2.40593 5.23944 2.68473 5.57293 2.68473ZM7.71078 2.0512L8.39306 1.94914L8.69836 1.31229C8.80388 1.09198 8.97465 1.09198 9.08018 1.31229L9.38547 1.94914L10.0677 2.0512C10.3034 2.08647 10.3561 2.25408 10.1854 2.42543L9.69157 2.9208L9.80797 3.62072C9.84824 3.8626 9.7101 3.96632 9.49905 3.85181L8.88927 3.52198L8.27908 3.85223C8.06804 3.96674 7.92989 3.86301 7.97016 3.62113L8.08656 2.92122L7.59278 2.42584C7.422 2.2545 7.47517 2.08647 7.71078 2.0512ZM14.0128 13.3158C14.1675 13.3158 14.3108 13.2117 14.3535 13.0478C14.6737 11.8259 14.8727 11.0688 15.1977 9.82868C15.2444 9.64986 15.1546 9.45984 14.9871 9.39221C13.0921 8.62509 11.0976 8.27285 9.0991 8.27285C6.96688 8.27285 4.83023 8.67404 2.80555 9.40051C2.63035 9.46357 2.53288 9.65774 2.58121 9.84237C2.90422 11.0746 3.10238 11.8305 3.42177 13.0482C3.46447 13.2117 3.60785 13.3162 3.76251 13.3162C3.80279 13.3162 3.84427 13.3092 3.88455 13.2938C5.51251 12.6897 7.20008 12.3873 8.88806 12.3877C10.5752 12.3877 12.2632 12.6897 13.8904 13.2938C13.931 13.3087 13.9721 13.3158 14.0128 13.3158ZM17.6574 12.2114C17.8749 11.9911 17.7855 11.6114 17.4939 11.5189L15.9279 11.0219L15.7004 11.889L15.3254 13.3187C15.1659 13.9278 14.6258 14.3534 14.0124 14.3534C13.8541 14.3534 13.6982 14.3252 13.5488 14.2696C13.4598 14.2364 13.3696 14.2078 13.2802 14.1763L13.1549 14.5949C13.0893 14.814 13.2085 15.0463 13.4211 15.1135L16.1555 15.9815C16.4475 16.0744 16.7298 15.8109 16.6686 15.5023L16.3355 13.8128C16.3085 13.6751 16.3508 13.5328 16.4479 13.434L17.6574 12.2114ZM4.49795 14.1754C4.40733 14.207 4.31631 14.236 4.22609 14.2696C4.07666 14.3252 3.9208 14.3534 3.76251 14.3534C3.1491 14.3534 2.6094 13.9278 2.44951 13.3191L2.01331 11.6558L1.84738 11.0231L0.284258 11.5193C-0.00734188 11.6119 -0.0967551 11.9915 0.120736 12.2118L1.32983 13.4349C1.4273 13.5332 1.46959 13.6759 1.4422 13.8137L1.10911 15.5031C1.0483 15.8118 1.33023 16.0748 1.62223 15.9823L4.35658 15.1143C4.56924 15.0467 4.68846 14.8148 4.62281 14.5957L4.49795 14.1754Z" fill="currentColor"/>
</svg>
