<svg width="19" height="20" viewBox="0 0 19 20" fill="none" xmlns="http://www.w3.org/2000/svg">
<path d="M8.62322 1.59855C9.00285 0.906415 9.99715 0.906413 10.3768 1.59855L16.915 13.5191C17.2805 14.1855 16.7983 15 16.0382 15H2.96178C2.2017 15 1.71948 14.1855 2.08501 13.5191L8.62322 1.59855Z" fill="#F12619"/>
<path d="M8.996 10.18L8.672 7V4.6H10.532V7L10.22 10.18H8.996ZM10.328 12.856C10.128 13.056 9.888 13.156 9.608 13.156C9.328 13.156 9.088 13.056 8.888 12.856C8.688 12.656 8.588 12.416 8.588 12.136C8.588 11.856 8.688 11.616 8.888 11.416C9.088 11.216 9.328 11.116 9.608 11.116C9.888 11.116 10.128 11.216 10.328 11.416C10.528 11.616 10.628 11.856 10.628 12.136C10.628 12.416 10.528 12.656 10.328 12.856Z" fill="#191D21"/>
</svg>
