<svg width="35" height="35" viewBox="0 0 35 35" fill="none" xmlns="http://www.w3.org/2000/svg">
<path d="M17.5 0C7.83502 0 0 7.83502 0 17.5C0 27.165 7.83502 35 17.5 35C27.165 35 35 27.165 35 17.5C34.9999 7.83502 27.165 0 17.5 0ZM8.02702 10.7383L8.48074 9.61469C8.49783 9.57241 8.54598 9.55193 8.58826 9.56902L11.9501 10.9264C12.0187 10.9505 12.0857 10.9776 12.1512 11.0076L15.6068 12.4029C15.6491 12.42 15.6695 12.4681 15.6524 12.5104L15.1987 13.634C15.1816 13.6763 15.1335 13.6968 15.0912 13.6797L13.5357 13.0516C13.5376 13.0899 13.5386 13.1284 13.5386 13.167C13.5386 14.4783 12.4756 15.5413 11.1644 15.5413C9.85311 15.5413 8.79009 14.4783 8.79009 13.167C8.79009 12.485 9.07806 11.8707 9.53846 11.4376L8.07277 10.8458C8.03041 10.8287 8.01001 10.7806 8.02702 10.7383ZM26.2783 25.236C26.2783 25.5553 26.0195 25.8141 25.7002 25.8141H9.29972C8.98045 25.8141 8.72163 25.5553 8.72163 25.236V21.2599C8.72163 20.9406 8.98045 20.6818 9.29972 20.6818H25.7001C26.0194 20.6818 26.2782 20.9406 26.2782 21.2599V25.236H26.2783ZM26.8507 10.8767L25.4615 11.4376C25.9219 11.8707 26.2099 12.485 26.2099 13.167C26.2099 14.4783 25.1469 15.5413 23.8356 15.5413C22.5244 15.5413 21.4614 14.4783 21.4614 13.167C21.4614 13.1283 21.4624 13.0899 21.4643 13.0516L19.9853 13.6487C19.9008 13.6829 19.8045 13.642 19.7704 13.5574L19.3785 12.5869C19.3443 12.5023 19.3853 12.406 19.4699 12.3719L22.8489 11.0076C22.9144 10.9776 22.9815 10.9505 23.05 10.9264L26.3353 9.59999C26.4198 9.5658 26.5161 9.60668 26.5502 9.69133L26.9421 10.6618C26.9761 10.7463 26.9352 10.8425 26.8507 10.8767Z" fill="#8223FA"/>
<path d="M10.8443 24.0472C11.0108 24.0472 11.1552 24.1864 11.1564 24.3567C11.1551 24.5297 11.0107 24.6688 10.8443 24.6688C10.6727 24.6688 10.5309 24.5296 10.5322 24.3567C10.5309 24.1864 10.6726 24.0472 10.8443 24.0472ZM11.133 21.9717L11.0823 23.8365H10.6063L10.5543 21.9717H11.133Z" fill="#8223FA"/>
<path d="M12.0328 24.0472C12.1993 24.0472 12.3436 24.1864 12.3449 24.3567C12.3436 24.5297 12.1992 24.6688 12.0328 24.6688C11.8612 24.6688 11.7194 24.5296 11.7207 24.3567C11.7194 24.1864 11.8612 24.0472 12.0328 24.0472ZM12.3215 21.9717L12.2708 23.8365H11.7948L11.7428 21.9717H12.3215Z" fill="#8223FA"/>
<path d="M13.2222 24.0472C13.3887 24.0472 13.5331 24.1864 13.5343 24.3567C13.533 24.5297 13.3887 24.6688 13.2222 24.6688C13.0506 24.6688 12.9088 24.5296 12.9102 24.3567C12.9088 24.1864 13.0506 24.0472 13.2222 24.0472ZM13.511 21.9717L13.4603 23.8365H12.9842L12.9322 21.9717H13.511Z" fill="#8223FA"/>
<path d="M14.708 22.9666L14.2866 23.2488L14.1123 22.9419L14.5662 22.7208L14.1123 22.4997L14.2866 22.1928L14.708 22.4749L14.6754 21.9717H15.0252L14.9914 22.4749L15.4128 22.1928L15.587 22.4997L15.1345 22.7208L15.587 22.9419L15.4128 23.2488L14.9914 22.9666L15.0252 23.4699H14.6754L14.708 22.9666Z" fill="#8223FA"/>
<path d="M15.9893 24.635L16.8229 23.3033L16.0049 21.9717H16.6434L17.1805 22.8794H17.2013L17.741 21.9717H18.3769L17.564 23.3033L18.3951 24.635H17.7475L17.2013 23.726H17.1805L16.6343 24.635H15.9893Z" fill="#8223FA"/>
<path d="M20.4815 21.9834C21.5154 21.9834 22.1266 22.6233 22.1253 23.5478C22.1266 24.1863 21.912 24.6389 21.3502 24.6701C21.0485 24.6922 20.9287 24.57 20.9002 24.3905H20.8846C20.8235 24.5479 20.5583 24.6713 20.263 24.6545C19.8521 24.6323 19.5037 24.3189 19.501 23.7065C19.5036 23.1031 19.8781 22.8182 20.2253 22.7676C20.2708 22.7611 20.3164 22.7571 20.3606 22.7571C20.5986 22.7571 20.8001 22.8495 20.8378 22.9457H20.8561V22.8001H21.2631V24.0693C21.2644 24.1902 21.319 24.2578 21.4088 24.2578C21.5882 24.2578 21.6819 24.0263 21.6806 23.5179C21.6819 22.7011 21.1006 22.402 20.475 22.402C19.6102 22.402 19.1863 22.9625 19.1837 23.7064C19.1862 24.5283 19.6465 24.9782 20.4945 24.9782C20.7936 24.9782 21.0927 24.9028 21.2319 24.8456L21.3606 25.2227C21.198 25.315 20.8353 25.4022 20.4646 25.4022C19.358 25.4022 18.7219 24.7845 18.7207 23.7219C18.722 22.6766 19.3631 21.9834 20.4815 21.9834ZM19.9496 23.6909C19.9509 23.9666 20.0654 24.2267 20.4048 24.2267C20.7234 24.2267 20.8353 24.0407 20.8314 23.687C20.83 23.3749 20.7313 23.2006 20.4023 23.2006C20.1135 23.2006 19.9509 23.3944 19.9496 23.6909Z" fill="#8223FA"/>
<path d="M23.2808 21.9355C23.797 21.9355 24.1638 22.2008 24.1638 22.656C24.1638 22.9616 24.0051 23.1527 23.7619 23.2971C23.5565 23.4206 23.4655 23.5391 23.4628 23.7926V23.8368H22.97V23.7926C22.9713 23.3374 23.0935 23.1983 23.312 23.0605C23.472 22.959 23.5955 22.8459 23.5955 22.6756C23.5955 22.4948 23.4538 22.3778 23.2782 22.3778C23.1079 22.3778 22.9505 22.4909 22.9427 22.7029H22.4121C22.4238 22.1826 22.8088 21.9355 23.2808 21.9355ZM23.2262 24.0474C23.3927 24.0474 23.5371 24.1866 23.5383 24.3569C23.537 24.5299 23.3926 24.669 23.2262 24.669C23.0545 24.669 22.9128 24.5298 22.9141 24.3569C22.9128 24.1866 23.0544 24.0474 23.2262 24.0474Z" fill="#8223FA"/>
</svg>
