<svg width="352" height="469" viewBox="0 0 352 469" fill="none" xmlns="http://www.w3.org/2000/svg">
<g filter="url(#filter0_d_204_83)">
<path d="M291.231 442.776H25.8477V61.8357L61.6185 26.1337H326.983V407.093L291.231 442.776ZM28.1924 440.435H290.255L324.638 406.119V28.4751H62.5751L28.1924 62.8098V440.435Z" fill="url(#paint0_linear_204_83)"/>
<path d="M291.231 442.776H25.8477V61.8357L61.6185 26.1337H326.983V407.093L291.231 442.776ZM28.1924 440.435H290.255L324.638 406.119V28.4751H62.5751L28.1924 62.8098V440.435Z" fill="url(#paint1_linear_204_83)"/>
</g>
<g filter="url(#filter1_f_204_83)">
<path d="M203.978 27.2953L210.974 20.3085H331.849V139.103L325.659 145.266V27.2578L203.978 27.2953ZM27.0183 441.353V323.345L20.8282 329.508V448.302H141.702L148.699 441.315L27.0183 441.353Z" fill="url(#paint2_linear_204_83)"/>
</g>
<path d="M203.978 27.2953L210.974 20.3085H331.849V139.103L325.659 145.266V27.2578L203.978 27.2953ZM27.0183 441.353V323.345L20.8282 329.508V448.302H141.702L148.699 441.315L27.0183 441.353Z" fill="url(#paint3_linear_204_83)"/>
<defs>
<filter id="filter0_d_204_83" x="21.8477" y="26.1337" width="309.135" height="424.643" filterUnits="userSpaceOnUse" color-interpolation-filters="sRGB">
<feFlood flood-opacity="0" result="BackgroundImageFix"/>
<feColorMatrix in="SourceAlpha" type="matrix" values="0 0 0 0 0 0 0 0 0 0 0 0 0 0 0 0 0 0 127 0" result="hardAlpha"/>
<feOffset dy="4"/>
<feGaussianBlur stdDeviation="2"/>
<feComposite in2="hardAlpha" operator="out"/>
<feColorMatrix type="matrix" values="0 0 0 0 0 0 0 0 0 0 0 0 0 0 0 0 0 0 0.25 0"/>
<feBlend mode="normal" in2="BackgroundImageFix" result="effect1_dropShadow_204_83"/>
<feBlend mode="normal" in="SourceGraphic" in2="effect1_dropShadow_204_83" result="shape"/>
</filter>
<filter id="filter1_f_204_83" x="0.828247" y="0.308472" width="351.02" height="467.994" filterUnits="userSpaceOnUse" color-interpolation-filters="sRGB">
<feFlood flood-opacity="0" result="BackgroundImageFix"/>
<feBlend mode="normal" in="SourceGraphic" in2="BackgroundImageFix" result="shape"/>
<feGaussianBlur stdDeviation="10" result="effect1_foregroundBlur_204_83"/>
</filter>
<linearGradient id="paint0_linear_204_83" x1="47.7769" y1="146.364" x2="203.988" y2="336.719" gradientUnits="userSpaceOnUse">
<stop stop-color="#632ADA"/>
<stop offset="0.08" stop-color="#5F3DE0"/>
<stop offset="0.26" stop-color="#565FEB"/>
<stop offset="0.43" stop-color="#5079F4"/>
<stop offset="0.61" stop-color="#4C8CFA"/>
<stop offset="0.8" stop-color="#4997FE"/>
<stop offset="1" stop-color="#489BFF"/>
</linearGradient>
<linearGradient id="paint1_linear_204_83" x1="25.8477" y1="26.1337" x2="346.193" y2="41.4683" gradientUnits="userSpaceOnUse">
<stop stop-color="#8424FE"/>
<stop offset="1" stop-color="#651BC4"/>
</linearGradient>
<linearGradient id="paint2_linear_204_83" x1="20.8282" y1="20.3085" x2="351.681" y2="36.2322" gradientUnits="userSpaceOnUse">
<stop stop-color="#8424FE"/>
<stop offset="1" stop-color="#651BC4"/>
</linearGradient>
<linearGradient id="paint3_linear_204_83" x1="20.8282" y1="20.3085" x2="351.681" y2="36.2322" gradientUnits="userSpaceOnUse">
<stop stop-color="#8424FE"/>
<stop offset="1" stop-color="#651BC4"/>
</linearGradient>
</defs>
</svg>
