<svg width="19" height="27" viewBox="0 0 19 27" fill="none" xmlns="http://www.w3.org/2000/svg">
<path d="M17.3915 6.09275V2.53246H18.298C18.6857 2.53246 19 2.21917 19 1.83276V0.699699C19 0.313292 18.6857 0 18.2981 0H0.701953C0.314301 0 0 0.313292 0 0.699699V1.83278C0 2.21919 0.314301 2.53248 0.701953 2.53248H1.60851V6.09277C1.60851 8.38367 2.6203 10.5398 4.38425 12.008L6.17664 13.5L4.38433 14.992C2.6203 16.4604 1.60851 18.6163 1.60851 20.9072V24.4675H0.701953C0.314301 24.4675 0 24.7808 0 25.1672V26.3003C0 26.6867 0.314301 27 0.701953 27H18.2981C18.6857 27 19 26.6867 19 26.3003V25.1672C19 24.7808 18.6857 24.4675 18.2981 24.4675H17.3915V20.9072C17.3915 18.6163 16.3797 16.4604 14.6158 14.992L12.8234 13.5L14.6158 12.008C16.3797 10.5398 17.3915 8.38367 17.3915 6.09275ZM13.7159 10.9339L11.2783 12.9629C11.1185 13.0958 11.0263 13.2926 11.0263 13.5C11.0263 13.7074 11.1185 13.9042 11.2783 14.0371L13.7159 16.0661C15.1595 17.2678 15.9876 19.0323 15.9876 20.9072V24.4675H3.0124V20.9072C3.0124 19.0323 3.84048 17.2678 5.28414 16.0661L7.72176 14.0371C7.88147 13.9042 7.97376 13.7074 7.97376 13.5C7.97376 13.2926 7.88147 13.0958 7.72176 12.9629L5.28414 10.9339C3.8404 9.73214 3.0124 7.96772 3.0124 6.09275V2.53246H15.9876V6.09275C15.9876 7.96772 15.1596 9.73214 13.7159 10.9339Z" fill="white"/>
<path d="M12.9848 19.54L10.2262 18.1782C9.9662 18.0499 9.80174 17.7858 9.80174 17.4966V12.7104L12.9843 10.0621C13.9987 9.21724 14.6409 8.03465 14.8042 6.74725H4.19598C4.35906 8.03467 5.00148 9.21724 6.01568 10.0621L9.19823 12.7118V17.4966C9.19823 17.7858 9.03377 18.0499 8.77384 18.1782L6.01531 19.54C4.83171 20.1242 4.15298 20.9819 4.15298 21.8935V23.3306H14.847V21.8935C14.847 20.9819 14.1683 20.1243 12.9848 19.54Z" fill="white"/>
</svg>
