<svg width="15" height="16" viewBox="0 0 15 16" fill="none" xmlns="http://www.w3.org/2000/svg">
<path d="M12.7576 5.41269C12.7576 2.42367 10.4037 0 7.5002 0C4.59646 0 2.24185 2.42367 2.24185 5.41269H0V16H15V5.41269H12.7576ZM8.16486 9.64888V13.3008H6.83474V9.64888C6.47393 9.41936 6.23319 9.00941 6.23319 8.5408C6.23319 7.82048 6.80032 7.23661 7.5 7.23661C8.19908 7.23661 8.76642 7.82048 8.76642 8.5408C8.76662 9.00941 8.52548 9.41936 8.16486 9.64888ZM4.25245 5.41269C4.25245 3.56637 5.7066 2.06973 7.5002 2.06973C9.2932 2.06973 10.7475 3.56637 10.7475 5.41269H4.25245Z" fill="#F12619"/>
</svg>
