<svg width="15" height="18" viewBox="0 0 15 18" fill="none" xmlns="http://www.w3.org/2000/svg">
<path d="M4.22096 7.77455V5.37596C4.22096 3.57546 5.68891 2.11584 7.4999 2.11584C9.31088 2.11584 10.779 3.57546 10.779 5.37596H12.9063C12.9063 2.40731 10.4857 0 7.4999 0C4.5143 0 2.09367 2.40731 2.09367 5.37596V7.77455H0V18H15V7.77455H4.22096ZM8.16466 12.2886V15.8161H6.83492V12.2886C6.47415 12.0671 6.23363 11.6712 6.23363 11.2186C6.23363 10.5231 6.80006 9.9589 7.4999 9.9589C8.19932 9.9589 8.76637 10.5234 8.76637 11.2186C8.76637 11.6714 8.52544 12.0671 8.16466 12.2886Z" fill="#10AA1B"/>
</svg>
