<svg width="19" height="25" viewBox="0 0 19 25" fill="none" xmlns="http://www.w3.org/2000/svg">
<g clip-path="url(#clip0_1_14307)">
<path d="M18.1431 18.4706L17.0019 17.777C16.5673 17.5128 16.2974 17.023 16.2974 16.4987V10.5172C16.2974 7.05276 13.8974 4.16316 10.7393 3.55415V1.29538C10.7393 0.553457 10.1424 -0.0428435 9.42319 0.00241698C8.76094 0.0441654 8.26055 0.652634 8.26055 1.34603V3.55415C5.10254 4.16321 2.70262 7.05276 2.70262 10.5172V16.4987C2.70262 17.023 2.43262 17.5128 1.99806 17.777L0.85686 18.4706C0.328309 18.7919 0 19.3876 0 20.0252C0 21.0176 0.774747 21.8249 1.72707 21.8249H17.2729C18.2253 21.8249 19 21.0176 19 20.0252C19 19.3876 18.6717 18.7919 18.1431 18.4706Z" fill="#632EDC"/>
<path d="M9.49605 25.0004C10.8532 25.0004 11.9971 24.0548 12.3416 22.7568H6.66162C7.0037 24.0548 8.13894 25.0004 9.49605 25.0004Z" fill="#632EDC"/>
</g>
<defs>
<clipPath id="clip0_1_14307">
<rect width="19" height="25" fill="white"/>
</clipPath>
</defs>
</svg>
