<svg width="80" height="54" viewBox="0 0 80 54" fill="none" xmlns="http://www.w3.org/2000/svg">
<circle style="mix-blend-mode:hard-light" cx="45.6611" cy="28.3833" r="25.4253" fill="url(#paint0_radial_1_14216)"/>
<rect x="65.0554" y="23.9619" width="3.57331" height="4.20389" fill="#8424FE"/>
<rect x="54.2302" y="40.3574" width="3.57331" height="4.20389" fill="#8424FE"/>
<rect x="48.1348" y="35.6279" width="3.57331" height="4.20389" fill="white"/>
<rect x="67.2625" y="12.8223" width="2.31214" height="2.73253" fill="#8424FE"/>
<rect x="67.8931" y="13.7676" width="1.05097" height="0.840779" fill="white"/>
<rect x="68.6287" y="18.918" width="2.52234" height="1.15607" fill="white"/>
<rect x="52.969" y="9.77441" width="2.52234" height="2.52234" fill="white"/>
<rect x="63.7942" y="5.36035" width="2.52234" height="2.52234" fill="white"/>
<rect x="64.3196" y="40.9883" width="2.52234" height="2.52234" fill="white"/>
<rect x="76.406" y="16.6055" width="0.945876" height="0.945876" fill="white"/>
<rect x="58.1189" y="6.62109" width="0.945876" height="0.945876" fill="white"/>
<rect x="52.0232" y="2.3125" width="0.945876" height="0.945876" fill="white"/>
<rect x="65.0554" width="0.945876" height="0.945876" fill="white"/>
<rect x="67.8931" y="35.418" width="0.735682" height="0.735682" fill="white"/>
<rect x="64.1096" y="38.1504" width="0.945876" height="0.945876" fill="white"/>
<rect x="75.46" y="38.6758" width="0.945876" height="0.945876" fill="white"/>
<rect width="0.315292" height="0.315292" transform="matrix(1 0 0 -1 74.8296 32.79)" fill="white"/>
<rect width="0.315292" height="0.315292" transform="matrix(1 0 0 -1 74.5142 29.3223)" fill="white"/>
<rect width="0.315292" height="0.315292" transform="matrix(1 0 0 -1 77.4568 22.5957)" fill="white"/>
<rect width="0.315292" height="0.315292" transform="matrix(1 0 0 -1 64.3196 35.7334)" fill="white"/>
<rect width="0.315292" height="0.315292" transform="matrix(1 0 0 -1 56.0168 41.3037)" fill="white"/>
<rect width="0.315292" height="0.315292" transform="matrix(1 0 0 -1 71.1511 40.3574)" fill="white"/>
<rect width="0.315292" height="0.315292" transform="matrix(1 0 0 -1 79.1387 32.8955)" fill="white"/>
<rect x="57.8037" y="1.99707" width="2.52234" height="2.52234" fill="white"/>
<rect width="4.83448" height="0.105097" transform="matrix(1 0 0 -1 56.6477 3.25781)" fill="#8424FE"/>
<rect x="72.6223" y="6.0957" width="1.47136" height="1.47136" fill="#8424FE"/>
<rect x="68.9441" y="3.88867" width="0.210195" height="0.210195" fill="#8424FE"/>
<rect x="54.4404" y="7.25195" width="0.210195" height="0.210195" fill="#8424FE"/>
<rect x="49.9214" y="18.3916" width="2.52234" height="2.20704" fill="white"/>
<rect x="0.630615" y="23.9629" width="3.67841" height="1.99685" fill="#8424FE"/>
<rect x="33.3159" y="25.6445" width="2.83763" height="1.99685" fill="#8424FE"/>
<rect x="45.5073" y="14.3984" width="2.62743" height="1.99685" fill="#8424FE"/>
<rect x="13.2422" y="13.3477" width="3.67841" height="1.99685" fill="#8424FE"/>
<path d="M63.5361 29.2824L63.5374 29.2818C68.2117 27.2561 70.7221 24.4157 70.7221 20.7048C70.7221 18.1993 70.0576 16.2304 68.6432 14.8944C67.2341 13.5636 65.1663 12.9423 62.5331 12.9423C59.8999 12.9423 57.832 13.5636 56.423 14.8944C55.104 16.1402 54.4371 17.9364 54.3531 20.2048H51.6888C51.772 16.9006 52.6896 14.4824 54.367 12.8672C56.1314 11.1681 58.822 10.2744 62.5331 10.2744C66.2441 10.2744 68.9347 11.1681 70.6991 12.8672C72.46 14.5628 73.3836 17.1433 73.3836 20.7048C73.3836 23.137 72.6435 25.2676 71.1622 27.1166C69.6745 28.9737 67.4203 30.5694 64.3615 31.8849L64.3595 31.8858L59.7019 33.9134C57.9847 34.6202 56.0204 35.6957 54.4766 37.1523C52.9294 38.6122 51.7691 40.4913 51.7691 42.7855V43.2855H52.2691H73.3836V45.9534H49.1077V42.7855C49.1077 37.271 53.9151 33.4072 58.8729 31.2879L58.8739 31.2875L63.5361 29.2824Z" fill="#8424FE" stroke="black"/>
<path d="M62.8129 28.2977C67.402 26.3088 69.6965 23.6028 69.6965 20.1794C69.6965 15.3377 67.1335 12.9169 62.0075 12.9169C56.8814 12.9169 54.3184 15.3377 54.3184 20.1794H50.6569C50.6569 12.8925 54.4404 9.24902 62.0075 9.24902C69.5744 9.24902 73.3579 12.8925 73.3579 20.1794C73.3579 25.2655 70.2498 29.1453 64.0334 31.8188L59.3712 33.8484C56.0026 35.234 51.7435 38.038 51.7435 42.2601H73.3579V45.928H48.082V42.2601C48.082 36.4241 53.1548 32.4383 58.1507 30.3027L62.8129 28.2977Z" fill="white"/>
<rect x="67.0522" y="11.666" width="0.630584" height="0.630584" fill="#8424FE"/>
<rect x="50.552" y="19.3389" width="2.31214" height="0.210195" fill="#8424FE"/>
<path d="M10.2489 15.034L10.2489 15.034L10.2549 15.0395C11.0291 15.7533 11.439 16.7508 11.439 18.0981C11.439 18.7056 11.3488 19.2832 11.1699 19.8333C10.999 20.345 10.7115 20.8131 10.298 21.2391L10.2979 21.2392C9.91328 21.6358 9.38808 21.9635 8.70144 22.2096C8.02933 22.4506 7.17265 22.5797 6.11662 22.5797H4.75036H4.25036V23.0797V27.9186H2.07642V13.9107H6.36886C8.24643 13.9107 9.50073 14.3214 10.2489 15.034ZM4.75036 15.5171H4.25036V16.0171V20.4733V20.9733H4.75036H5.80133C6.44431 20.9733 7.02225 20.8913 7.52398 20.7133C8.04351 20.5289 8.46896 20.2256 8.77372 19.7954C9.08713 19.3529 9.22304 18.809 9.22304 18.2032C9.22304 17.3752 8.99513 16.6658 8.44362 16.1881C7.90463 15.7072 7.12142 15.5171 6.2007 15.5171H4.75036ZM33.6002 13.8477L38.5653 27.9186H36.2156L35.2308 24.6991L35.1226 24.3453H34.7527H29.2876H28.9177L28.8095 24.6991L27.8247 27.9186H25.4742L30.4196 13.8477H33.6002ZM17.9491 26.2912H23.5448V27.9186H15.2752V13.9107H17.4491V25.7912V26.2912H17.9491ZM32.5052 15.5595L31.5351 15.5595C31.4676 15.8295 31.3719 16.1718 31.247 16.5881L31.2469 16.5881L31.2439 16.5988C31.1325 17.0024 31.0214 17.3917 30.9102 17.7668L30.9101 17.7668L30.9068 17.7789C30.809 18.1423 30.7365 18.3835 30.6884 18.5158L30.6841 18.5277L30.6804 18.5398L29.6084 22.029L29.4097 22.6758H30.0864H33.996H34.6766L34.4731 22.0264L33.3814 18.5412C33.3107 18.301 33.2195 17.9991 33.1076 17.6357C32.996 17.2731 32.8845 16.9035 32.7728 16.5266C32.6621 16.153 32.5731 15.8309 32.5052 15.5595ZM44.1403 19.8153L44.5854 20.6994L45.0329 19.8165L48.0259 13.9107H50.3041L45.724 22.3364L45.6633 22.4481V22.5752V27.9186H43.5104V22.6803V22.5545L43.4508 22.4436L38.8651 13.9107H41.1679L44.1403 19.8153Z" fill="#8424FE" stroke="black"/>
<path d="M5.84346 12.8853C7.77726 12.8853 9.18556 13.3057 10.0684 14.1465C10.9652 14.9733 11.4136 16.1153 11.4136 17.5727C11.4136 18.2313 11.3155 18.8619 11.1194 19.4644C10.9232 20.053 10.5939 20.5855 10.1314 21.0619C9.68302 21.5243 9.08747 21.8887 8.34478 22.1549C7.60209 22.4212 6.68424 22.5543 5.59123 22.5543H4.22497V27.8932H1.05103V12.8853H5.84346ZM5.67531 15.4917H4.22497V19.9479H5.27594C5.87849 19.9479 6.39698 19.8708 6.83138 19.7167C7.26578 19.5625 7.60209 19.3173 7.84031 18.981C8.07854 18.6447 8.19765 18.2103 8.19765 17.6778C8.19765 16.9351 7.99446 16.3886 7.58808 16.0382C7.1817 15.6739 6.54412 15.4917 5.67531 15.4917ZM14.2498 27.8932V12.8853H17.4237V25.2658H23.5194V27.8932H14.2498ZM35.3203 27.8932L34.2273 24.3199H28.7623L27.6692 27.8932H24.2431L29.54 12.8223H33.4286L38.7465 27.8932H35.3203ZM32.3776 18.1612C32.3075 17.923 32.2165 17.6217 32.1044 17.2574C31.9922 16.893 31.8802 16.5217 31.768 16.1433C31.6559 15.765 31.5649 15.4357 31.4948 15.1554C31.4247 15.4357 31.3266 15.786 31.2005 16.2064C31.0884 16.6128 30.9763 17.0051 30.8642 17.3835C30.7661 17.7478 30.689 18.0071 30.633 18.1612L29.561 21.6504H33.4706L32.3776 18.1612ZM44.0615 19.065L47.1934 12.8853H50.6196L45.6379 22.0498V27.8932H42.485V22.1549L37.5034 12.8853H40.9506L44.0615 19.065Z" fill="white"/>
<rect y="15.0293" width="1.05097" height="3.15292" fill="white"/>
<rect x="3.99365" y="14.7139" width="0.315292" height="2.31214" fill="#8424FE"/>
<rect x="3.15283" y="43.3008" width="3.67841" height="1.99685" fill="#8424FE"/>
<rect x="12.2964" y="39.832" width="3.67841" height="1.99685" fill="#8424FE"/>
<rect x="23.9622" y="39.832" width="3.67841" height="1.05097" fill="#8424FE"/>
<rect x="31.6343" y="39.832" width="3.67841" height="1.05097" fill="#8424FE"/>
<rect x="31.8445" y="44.0361" width="3.67841" height="1.05097" fill="white"/>
<rect x="14.1882" y="43.7207" width="2.31214" height="1.99685" fill="#8424FE"/>
<rect x="22.1755" y="43.7207" width="2.31214" height="1.99685" fill="#8424FE"/>
<rect x="39.2014" y="41.8291" width="2.31214" height="2.73253" fill="#8424FE"/>
<rect x="41.4084" y="31.8447" width="2.31214" height="2.73253" fill="#8424FE"/>
<rect x="42.0391" y="32.791" width="1.05097" height="0.840779" fill="white"/>
<rect x="1.99683" y="34.3672" width="1.57646" height="1.68156" fill="white"/>
<rect x="17.2361" y="33.9473" width="1.99685" height="2.10195" fill="white"/>
<rect x="23.647" y="34.3672" width="2.52234" height="3.15292" fill="white"/>
<rect x="31.2139" y="32.1602" width="2.52234" height="3.15292" fill="white"/>
<rect x="42.0391" y="37.9404" width="2.52234" height="1.15607" fill="white"/>
<rect x="8.09253" y="37.5205" width="1.99685" height="2.10195" fill="white"/>
<rect x="9.35352" y="31.4248" width="1.78665" height="1.99685" fill="#8424FE"/>
<rect x="27.3252" y="15.0293" width="1.57646" height="3.15292" fill="white"/>
<rect x="24.4878" y="24.0674" width="1.05097" height="3.15292" fill="white"/>
<rect x="34.2617" y="25.6445" width="1.05097" height="1.36627" fill="white"/>
<rect x="31.0039" y="15.0293" width="0.630584" height="1.99685" fill="#8424FE"/>
<rect x="12.6118" y="20.2842" width="1.05097" height="3.15292" fill="white"/>
<rect x="16.6055" y="20.2842" width="0.315292" height="1.99685" fill="#8424FE"/>
<rect x="41.5134" y="23.542" width="1.05097" height="3.15292" fill="white"/>
<rect x="45.5073" y="23.542" width="0.315292" height="1.99685" fill="#8424FE"/>
<path d="M11.6585 36.7515C11.7279 36.3904 11.7903 36.0507 11.8457 35.7322L11.8471 35.724L11.8488 35.7159C11.9176 35.3857 11.9544 35.1515 11.9659 35.0018L12.9586 34.9641C12.9861 35.1429 13.0276 35.3991 13.0834 35.7339C13.1384 36.0498 13.2002 36.3866 13.269 36.7444C13.3526 37.1073 13.423 37.4447 13.4799 37.7565C13.5485 38.0578 13.6018 38.277 13.6404 38.4189L13.6422 38.4252L13.6421 38.4252L15.5841 45.9327H18.4238L21.9944 31.9248H19.9027L18.081 39.7323C18.0108 40.0549 17.9201 40.4596 17.8089 40.9463C17.7122 41.43 17.6224 41.9137 17.5395 42.3974L17.5391 42.3998C17.456 42.8702 17.3945 43.2741 17.3539 43.6126L16.3606 43.6083C16.3338 43.3675 16.2932 43.0826 16.2382 42.7524L16.2376 42.7492L16.2376 42.7492C16.1825 42.4043 16.1204 42.0521 16.0512 41.6927M11.6585 36.7515L16.5422 41.5982M11.6585 36.7515C11.5892 37.0979 11.52 37.4301 11.4508 37.7482C11.3815 38.0533 11.3267 38.2862 11.2861 38.4487C11.2859 38.4492 11.2858 38.4497 11.2857 38.4502L9.36504 45.9327H6.52609L2.95545 31.9248H5.04715L6.86976 39.736L6.86997 39.7369C6.9243 39.9678 6.98615 40.2562 7.05557 40.6033L7.05556 40.6033L7.05637 40.6072C7.1256 40.9395 7.19494 41.2931 7.26441 41.6683L7.2644 41.6683L7.26505 41.6716C7.33418 42.0311 7.39632 42.3833 7.45151 42.7282L7.45304 42.7378L7.45494 42.7473C7.52321 43.0886 7.56949 43.3748 7.59543 43.6083L8.58962 43.6054C8.61636 43.3514 8.65686 43.0603 8.71168 42.7314L8.71169 42.7314L8.7122 42.7282C8.76723 42.3843 8.82914 42.0403 8.89795 41.6963L8.89796 41.6963L8.89866 41.6927C8.96835 41.3303 9.03121 40.9951 9.08723 40.6872C9.15536 40.3745 9.21435 40.1407 9.2639 39.9796L9.26714 39.9691L9.26992 39.9584L11.3587 31.9248H13.5912M11.6585 36.7515L13.5912 31.9248M16.0512 41.6927L16.5422 41.5982M16.0512 41.6927C16.0512 41.6927 16.0512 41.6927 16.0512 41.6927L16.5422 41.5982M16.0512 41.6927C15.982 41.3328 15.9131 41.0021 15.8444 40.7002L15.8434 40.6956L15.8434 40.6956C15.7743 40.3779 15.7194 40.1303 15.6782 39.9517M16.5422 41.5982C16.4721 41.2339 16.4021 40.8976 16.332 40.5893C16.2619 40.267 16.2059 40.0148 16.1638 39.8326M15.6782 39.9517L15.6799 39.9584L16.1638 39.8326M15.6782 39.9517L13.5912 31.9248M15.6782 39.9517C15.6777 39.9495 15.6772 39.9472 15.6766 39.945L16.1638 39.8326M16.1638 39.8326L13.5912 31.9248M17.2248 42.5897C17.2249 42.5902 17.225 42.5907 17.2251 42.5913L16.9925 42.6285C16.935 42.9743 16.89 43.2825 16.8575 43.553L17.2248 42.5897ZM17.2248 42.5897C17.2114 42.5059 17.1976 42.4216 17.1834 42.337C17.1834 42.3368 17.1833 42.3366 17.1833 42.3363C17.1609 42.2029 17.1375 42.0685 17.1132 41.9332L17.2248 42.5897ZM25.3437 44.2385L25.6348 44.1047V43.7843V34.0733V33.7528L25.3437 33.619L23.8062 32.9121V31.9248H29.6375V32.9121L28.0999 33.619L27.8088 33.7528V34.0733V43.7843V44.1047L28.0999 44.2385L29.6375 44.9455V45.9327H23.8062V44.9455L25.3437 44.2385ZM35.8608 34.8327L35.7166 34.5822H35.4276H35.3435H34.8231L34.8439 35.1021C34.8578 35.4522 34.8718 35.8093 34.8859 36.1735L34.8859 36.1741C34.8999 36.5242 34.9139 36.8813 34.9279 37.2455L34.9283 37.2557L34.9291 37.266C34.9565 37.6092 34.9772 37.9597 34.991 38.3175L34.991 38.3181C35.0049 38.6651 35.0187 39.019 35.0327 39.3798V45.9327H33.195V31.9248H36.4216L42.7932 42.9209L42.9376 43.1702H43.2258H43.2888H43.8094L43.7884 42.6501C43.7743 42.2997 43.7604 41.9561 43.7464 41.6195C43.7324 41.2728 43.7186 40.933 43.7048 40.5999C43.7046 40.2465 43.6975 39.8997 43.6833 39.5596L43.6417 38.5194V31.9248H45.5004V45.9327H42.2536L35.8608 34.8327Z" fill="#8424FE" stroke="black"/>
<path d="M22.1124 30.8994L18.2869 45.9073H14.6716L12.6327 38.025C12.5906 37.8709 12.5346 37.6397 12.4645 37.3314C12.4085 37.0231 12.3384 36.6868 12.2543 36.3224C12.1842 35.9581 12.1212 35.6148 12.0651 35.2925C12.0091 34.9562 11.9671 34.6969 11.939 34.5148C11.925 34.6969 11.883 34.9562 11.8129 35.2925C11.7569 35.6148 11.6938 35.9581 11.6237 36.3224C11.5537 36.6728 11.4836 37.0091 11.4135 37.3314C11.3435 37.6397 11.2874 37.8779 11.2454 38.046L9.22751 45.9073H5.61217L1.78662 30.8994H4.91852L6.83129 39.097C6.88734 39.3352 6.9504 39.6295 7.02047 39.9798C7.09054 40.3161 7.1606 40.6735 7.23066 41.0518C7.30073 41.4162 7.36379 41.7735 7.41984 42.1238C7.48991 42.4741 7.53895 42.7754 7.56698 43.0277C7.59501 42.7614 7.63704 42.4601 7.69309 42.1238C7.74914 41.7735 7.8122 41.4231 7.88227 41.0728C7.95234 40.7085 8.01539 40.3722 8.07144 40.0639C8.14151 39.7416 8.20457 39.4894 8.26062 39.3072L10.4466 30.8994H13.4524L15.6385 39.3072C15.6805 39.4894 15.7365 39.7416 15.8066 40.0639C15.8767 40.3722 15.9467 40.7085 16.0168 41.0728C16.0869 41.4372 16.15 41.7945 16.206 42.1448C16.262 42.4811 16.304 42.7754 16.3321 43.0277C16.3741 42.6774 16.4372 42.2639 16.5213 41.7875C16.6053 41.297 16.6965 40.8066 16.7945 40.3161C16.9067 39.8257 16.9977 39.4193 17.0678 39.097L18.9806 30.8994H22.1124ZM29.6121 45.9073H22.7808V44.0996L24.6095 43.2589V33.5479L22.7808 32.7071V30.8994H29.6121V32.7071L27.7834 33.5479V43.2589L29.6121 44.0996V45.9073ZM45.475 45.9073H41.4392L34.9022 34.5568H34.8181C34.8321 34.9071 34.846 35.2645 34.8601 35.6288C34.8741 35.9791 34.8881 36.3364 34.9022 36.7008C34.9301 37.0511 34.9511 37.4084 34.9652 37.7728C34.9792 38.1231 34.9932 38.4804 35.0073 38.8448V45.9073H32.1696V30.8994H36.1844L42.7004 42.1448H42.7635C42.7494 41.7945 42.7354 41.4512 42.7214 41.1149C42.7073 40.7646 42.6934 40.4212 42.6794 40.0849C42.6794 39.7346 42.6723 39.3913 42.6584 39.055C42.6443 38.7047 42.6303 38.3543 42.6163 38.004V30.8994H45.475V45.9073Z" fill="white"/>
<rect x="42.2493" y="19.2334" width="0.630584" height="0.630584" fill="#8424FE"/>
<rect x="19.2329" y="26.2744" width="0.630584" height="0.420389" fill="#8424FE"/>
<rect x="2.52246" y="20.8096" width="1.15607" height="0.210195" fill="#8424FE"/>
<rect x="7.46191" y="44.2461" width="1.26117" height="0.105097" fill="#8424FE"/>
<rect x="3.36304" y="32.5811" width="0.630584" height="0.630584" fill="#8424FE"/>
<rect x="18.9175" y="36.8896" width="0.630584" height="0.630584" fill="#8424FE"/>
<rect x="26.1692" y="40.9883" width="0.105097" height="1.68156" transform="rotate(-180 26.1692 40.9883)" fill="#8424FE"/>
<rect x="27.6406" y="43.8154" width="0.105097" height="1.68156" transform="rotate(-63.6912 27.6406 43.8154)" fill="#8424FE"/>
<rect x="33.6313" y="32.0547" width="0.210195" height="1.99685" fill="#8424FE"/>
<rect x="41.1982" y="42.5654" width="0.630584" height="0.630584" fill="#8424FE"/>
<rect x="43.7207" y="38.0459" width="0.840779" height="0.105097" fill="#8424FE"/>
<rect x="50.0264" y="38.3613" width="0.630584" height="0.630584" fill="#8424FE"/>
<rect x="67.3674" y="26.4854" width="2.83763" height="0.210195" fill="#8424FE"/>
<rect width="2.10195" height="0.210195" transform="matrix(1 0 0 -1 61.377 45.5078)" fill="#8424FE"/>
<defs>
<radialGradient id="paint0_radial_1_14216" cx="0" cy="0" r="1" gradientUnits="userSpaceOnUse" gradientTransform="translate(45.6616 28.3839) rotate(45) scale(25.4253)">
<stop stop-color="#D192FF"/>
<stop offset="0.12" stop-color="#D192FF" stop-opacity="0.78"/>
<stop offset="0.24" stop-color="#D192FF" stop-opacity="0.57"/>
<stop offset="0.37" stop-color="#D192FF" stop-opacity="0.4"/>
<stop offset="0.5" stop-color="#D192FF" stop-opacity="0.25"/>
<stop offset="0.62" stop-color="#D192FF" stop-opacity="0.14"/>
<stop offset="0.75" stop-color="#D192FF" stop-opacity="0.06"/>
<stop offset="0.88" stop-color="#D192FF" stop-opacity="0.02"/>
<stop offset="1" stop-color="#D192FF" stop-opacity="0"/>
</radialGradient>
</defs>
</svg>
