<svg width="850" height="497" viewBox="0 0 850 497" fill="none" xmlns="http://www.w3.org/2000/svg">
<rect x="695.962" y="256.348" width="38.2273" height="44.9733" fill="#8424FE"/>
<rect x="580.155" y="431.744" width="38.2273" height="44.9733" fill="#8424FE"/>
<rect x="514.944" y="381.149" width="38.2273" height="44.9733" fill="white"/>
<rect x="719.573" y="137.169" width="24.7353" height="29.2326" fill="#8424FE"/>
<rect x="726.319" y="147.287" width="11.2433" height="8.99466" fill="white"/>
<rect x="734.189" y="202.38" width="26.984" height="12.3677" fill="white"/>
<rect x="566.663" y="104.563" width="26.984" height="26.984" fill="white"/>
<rect x="682.47" y="57.3409" width="26.984" height="26.984" fill="white"/>
<rect x="688.091" y="438.49" width="26.984" height="26.984" fill="white"/>
<rect x="817.39" y="177.644" width="10.119" height="10.119" fill="white"/>
<rect x="621.756" y="70.8329" width="10.119" height="10.119" fill="white"/>
<rect x="556.544" y="24.7353" width="10.119" height="10.119" fill="white"/>
<rect x="695.962" width="10.119" height="10.119" fill="white"/>
<rect x="726.319" y="378.9" width="7.87032" height="7.87032" fill="white"/>
<rect x="685.843" y="408.133" width="10.119" height="10.119" fill="white"/>
<rect x="807.271" y="413.754" width="10.119" height="10.119" fill="white"/>
<rect width="3.373" height="3.373" transform="matrix(1 0 0 -1 800.525 350.792)" fill="white"/>
<rect width="3.373" height="3.373" transform="matrix(1 0 0 -1 797.152 313.689)" fill="white"/>
<rect width="3.373" height="3.373" transform="matrix(1 0 0 -1 828.633 241.731)" fill="white"/>
<rect width="3.373" height="3.373" transform="matrix(1 0 0 -1 688.091 382.273)" fill="white"/>
<rect width="3.373" height="3.373" transform="matrix(1 0 0 -1 599.269 441.863)" fill="white"/>
<rect width="3.373" height="3.373" transform="matrix(1 0 0 -1 761.173 431.744)" fill="white"/>
<rect width="3.373" height="3.373" transform="matrix(1 0 0 -1 846.622 351.916)" fill="white"/>
<rect x="618.383" y="21.3623" width="26.984" height="26.984" fill="white"/>
<rect width="51.7193" height="1.12433" transform="matrix(1 0 0 -1 606.015 34.8543)" fill="#8424FE"/>
<rect x="776.913" y="65.2112" width="15.7406" height="15.7406" fill="#8424FE"/>
<rect x="737.562" y="41.6003" width="2.24866" height="2.24866" fill="#8424FE"/>
<rect x="582.404" y="77.5789" width="2.24866" height="2.24866" fill="#8424FE"/>
<rect x="534.058" y="196.758" width="26.984" height="23.611" fill="white"/>
<rect x="6.74602" y="256.348" width="39.3516" height="21.3623" fill="#8424FE"/>
<rect x="356.413" y="274.337" width="30.357" height="21.3623" fill="#8424FE"/>
<rect x="486.836" y="154.034" width="28.1083" height="21.3623" fill="#8424FE"/>
<rect x="141.666" y="142.79" width="39.3516" height="21.3623" fill="#8424FE"/>
<path d="M677.792 308.805L677.794 308.805C726.973 287.491 751.735 258.407 751.735 221.496C751.735 195.514 744.857 175.937 731.014 162.862C717.177 149.793 696.467 143.302 668.978 143.302C641.488 143.302 620.778 149.793 606.941 162.862C593.188 175.853 586.309 195.262 586.221 220.996H548.05C548.137 182.351 558.233 153.436 578.254 134.157C598.364 114.79 628.574 105.063 668.978 105.063C709.381 105.063 739.591 114.79 759.702 134.157C779.809 153.519 789.906 182.6 789.906 221.496C789.906 248.591 781.63 272.459 765.077 293.122C748.518 313.792 723.656 331.276 690.454 345.556L690.452 345.557L640.585 367.265C640.583 367.266 640.582 367.267 640.58 367.267C622.529 374.693 602.071 385.926 586.118 400.979C570.161 416.035 558.674 434.949 558.674 457.716V458.216H559.174H789.906V496.455H520.504V457.716C520.504 395.604 574.507 353.086 627.915 330.256L627.916 330.255L677.792 308.805Z" fill="#8424FE" stroke="black"/>
<path d="M671.973 302.724C721.067 281.448 745.614 252.498 745.614 215.874C745.614 164.079 718.194 138.181 663.356 138.181C608.518 138.181 581.098 164.079 581.098 215.874H541.928C541.928 137.919 582.404 98.9415 663.356 98.9415C744.308 98.9415 784.784 137.919 784.784 215.874C784.784 270.286 751.533 311.792 685.03 340.393L635.153 362.106C599.117 376.929 553.552 406.926 553.552 452.094H784.784V491.333H514.382V452.094C514.382 389.661 568.651 347.021 622.097 324.174L671.973 302.724Z" fill="white"/>
<rect x="717.324" y="124.801" width="6.74599" height="6.74599" fill="#8424FE"/>
<rect x="540.804" y="206.877" width="24.7353" height="2.24866" fill="#8424FE"/>
<path d="M112.988 157.319L112.988 157.319L112.994 157.325C122.465 166.056 127.224 178.13 127.224 193.61C127.224 200.605 126.183 207.298 124.101 213.691C122.028 219.911 118.547 225.543 113.648 230.59L113.648 230.59C108.915 235.471 102.614 239.332 94.7249 242.16C86.8502 244.983 77.0922 246.404 65.4361 246.404H50.8198H50.3198V246.904V303.52H17.365V143.965H68.1345C88.766 143.965 103.678 148.453 112.988 157.319ZM50.8198 170.849H50.3198V171.349V219.02V219.52H50.8198H62.0631C68.5497 219.52 74.1559 218.691 78.8705 217.018C83.6028 215.339 87.2898 212.657 89.9049 208.965C92.5286 205.261 93.8196 200.505 93.8196 194.735C93.8196 186.704 91.6214 180.695 87.1287 176.82C82.6484 172.805 75.6816 170.849 66.3356 170.849H50.8198ZM192.02 276.411H256.731V303.52H158.565V143.965H191.52V275.911V276.411H192.02ZM362.886 143.29L419.425 303.52H383.848L372.263 265.646L372.155 265.292H371.785H313.32H312.95L312.842 265.646L301.257 303.52H265.679L321.994 143.29H362.886ZM343.038 167.629H342.067C341.32 170.617 340.273 174.357 338.925 178.85L338.922 178.861C337.724 183.206 336.526 187.4 335.327 191.444L335.324 191.457C334.275 195.353 333.454 198.109 332.863 199.736L332.859 199.748L332.855 199.76L321.387 237.088L321.188 237.734H321.865H363.69H364.371L364.167 237.085L352.477 199.765C352.476 199.764 352.476 199.763 352.475 199.762C351.725 197.211 350.751 193.987 349.551 190.09C348.352 186.194 347.154 182.223 345.955 178.177C344.757 174.134 343.785 170.619 343.038 167.629ZM476.545 209.801L476.99 210.685L477.437 209.802L510.803 143.965H546.309L493.417 241.268L493.356 241.38V241.507V303.52H460.626V242.631V242.505L460.567 242.394L407.669 143.965H443.403L476.545 209.801Z" fill="#8424FE" stroke="black"/>
<path d="M62.5129 137.843C83.2006 137.843 98.2667 142.341 107.711 151.335C117.305 160.18 122.102 172.398 122.102 187.989C122.102 195.034 121.053 201.78 118.954 208.227C116.856 214.523 113.333 220.22 108.386 225.316C103.588 230.264 97.2173 234.161 89.272 237.009C81.3267 239.858 71.5076 241.282 59.8145 241.282H45.1982V298.398H11.2434V137.843H62.5129ZM60.714 165.727H45.1982V213.399H56.4415C62.8876 213.399 68.4344 212.574 73.0816 210.925C77.7288 209.276 81.3267 206.653 83.8752 203.055C86.4237 199.457 87.6979 194.81 87.6979 189.113C87.6979 181.168 85.5243 175.321 81.1768 171.573C76.8294 167.676 70.0085 165.727 60.714 165.727ZM152.444 298.398V137.843H186.399V270.29H251.61V298.398H152.444ZM377.857 298.398L366.164 260.171H307.698L296.005 298.398H259.352L316.018 137.169H357.619L414.51 298.398H377.857ZM346.375 194.285C345.625 191.736 344.652 188.513 343.452 184.616C342.252 180.718 341.054 176.745 339.854 172.698C338.654 168.65 337.681 165.127 336.931 162.129C336.181 165.127 335.132 168.875 333.783 173.372C332.583 177.72 331.385 181.917 330.185 185.965C329.136 189.863 328.311 192.636 327.711 194.285L316.243 231.613H358.068L346.375 194.285ZM471.369 203.954L504.875 137.843H541.528L488.234 235.885V298.398H454.505V237.009L401.211 137.843H438.089L471.369 203.954Z" fill="white"/>
<rect x="7.62939e-06" y="160.78" width="11.2433" height="33.73" fill="white"/>
<rect x="42.7247" y="157.407" width="3.373" height="24.7353" fill="#8424FE"/>
<rect x="33.73" y="463.225" width="39.3516" height="21.3623" fill="#8424FE"/>
<rect x="131.547" y="426.122" width="39.3516" height="21.3623" fill="#8424FE"/>
<rect x="256.348" y="426.122" width="39.3516" height="11.2433" fill="#8424FE"/>
<rect x="338.424" y="426.122" width="39.3516" height="11.2433" fill="#8424FE"/>
<rect x="340.673" y="471.095" width="39.3516" height="11.2433" fill="white"/>
<rect x="151.785" y="467.722" width="24.7353" height="21.3623" fill="#8424FE"/>
<rect x="237.234" y="467.722" width="24.7353" height="21.3623" fill="#8424FE"/>
<rect x="419.376" y="447.484" width="24.7353" height="29.2326" fill="#8424FE"/>
<rect x="442.987" y="340.673" width="24.7353" height="29.2326" fill="#8424FE"/>
<rect x="449.733" y="350.792" width="11.2433" height="8.99466" fill="white"/>
<rect x="21.3623" y="367.657" width="16.865" height="17.9893" fill="white"/>
<rect x="184.39" y="363.16" width="21.3623" height="22.4866" fill="white"/>
<rect x="252.975" y="367.657" width="26.984" height="33.73" fill="white"/>
<rect x="333.927" y="344.046" width="26.984" height="33.73" fill="white"/>
<rect x="449.733" y="405.884" width="26.984" height="12.3677" fill="white"/>
<rect x="86.5736" y="401.387" width="21.3623" height="22.4866" fill="white"/>
<rect x="100.066" y="336.176" width="19.1136" height="21.3623" fill="#8424FE"/>
<rect x="292.326" y="160.78" width="16.865" height="33.73" fill="white"/>
<rect x="261.969" y="257.472" width="11.2433" height="33.73" fill="white"/>
<rect x="366.532" y="274.337" width="11.2433" height="14.6163" fill="white"/>
<rect x="331.678" y="160.78" width="6.74599" height="21.3623" fill="#8424FE"/>
<rect x="134.92" y="216.996" width="11.2433" height="33.73" fill="white"/>
<rect x="177.645" y="216.996" width="3.373" height="21.3623" fill="#8424FE"/>
<rect x="444.111" y="251.851" width="11.2433" height="33.73" fill="white"/>
<rect x="486.836" y="251.851" width="3.373" height="21.3623" fill="#8424FE"/>
<path d="M463.155 445.441C463.305 449.039 463.455 452.712 463.605 456.459L463.626 456.979H463.106H462.431H462.143L461.998 456.73L392.434 336.676H350.273V496.23H379.63V421.185C379.479 417.291 379.33 413.471 379.181 409.727L379.181 409.726C379.03 405.835 378.806 402.019 378.507 398.279L378.506 398.268L378.506 398.258C378.355 394.36 378.206 390.538 378.056 386.79L378.056 386.79C377.906 382.892 377.756 379.07 377.607 375.322L377.586 374.802H378.106H379.006H379.295L379.439 375.053L449.228 496.23H491.613V336.676H462.032V412.171V412.18L462.044 412.469C462.189 416.114 462.334 419.759 462.481 423.404M463.155 445.441L461.981 423.424M463.155 445.441C463.005 441.696 462.856 438.027 462.706 434.432M462.481 423.404L461.981 423.424M462.481 423.404C462.481 423.403 462.481 423.403 462.481 423.403L461.981 423.424M462.481 423.404C462.631 427.005 462.706 430.681 462.706 434.432M461.981 423.424C462.131 427.022 462.206 430.694 462.206 434.442M462.706 434.432C462.706 434.428 462.706 434.425 462.706 434.421L462.206 434.442M462.706 434.432C462.706 434.435 462.706 434.439 462.706 434.442H462.206M131.504 383.087C130.905 386.531 130.231 390.201 129.482 394.095C128.733 397.839 127.985 401.433 127.236 404.876C126.487 408.171 125.889 410.714 125.441 412.507C125.44 412.508 125.44 412.508 125.44 412.509L103.95 496.23H66.0495L25.3788 336.676H57.8437L78.2163 423.987L78.2165 423.988C78.8144 426.529 79.4878 429.671 80.2368 433.416L80.2376 433.42C80.9863 437.014 81.7351 440.833 82.4841 444.877L82.4847 444.881C83.2334 448.774 83.9071 452.591 84.5058 456.333L84.5073 456.343L84.5092 456.352C85.257 460.091 85.7789 463.299 86.0766 465.979L87.0708 465.976C87.3694 463.14 87.8176 459.927 88.416 456.336L88.4165 456.333C89.0151 452.592 89.6885 448.85 90.4369 445.109L90.4376 445.105C91.1868 441.21 91.8612 437.613 92.4607 434.315C93.2084 430.877 93.879 428.197 94.4721 426.269L94.4753 426.259L94.4781 426.248L117.767 336.676H149.15L172.435 426.235C172.436 426.237 172.436 426.239 172.437 426.241C172.885 428.186 173.484 430.88 174.233 434.324L174.234 434.328C174.982 437.62 175.73 441.212 176.479 445.105C177.228 448.999 177.902 452.816 178.5 456.558L178.5 456.561C179.099 460.153 179.547 463.292 179.846 465.979L180.839 465.983C181.288 462.247 181.961 457.834 182.859 452.743L182.859 452.741C183.758 447.501 184.731 442.261 185.779 437.02C186.978 431.777 187.951 427.431 188.701 423.983C188.701 423.982 188.702 423.981 188.702 423.98L209.073 336.676H241.538L200.867 496.23H162.966L141.25 412.28L141.249 412.274C140.802 410.637 140.206 408.176 139.457 404.885C138.857 401.583 138.107 397.984 137.208 394.088C136.46 390.197 135.786 386.531 135.188 383.089C134.589 379.493 134.139 376.722 133.84 374.777L132.847 374.814C132.7 376.731 132.255 379.479 131.507 383.071L131.505 383.079L131.504 383.087ZM269.103 468.851L269.394 468.717V468.397V364.509V364.188L269.103 364.054L249.831 355.194V336.676H321.912V355.194L302.64 364.054L302.349 364.188V364.509V468.397V468.717L302.64 468.851L321.912 477.712V496.23H249.831V477.712L269.103 468.851ZM378.556 386.771C378.705 390.518 378.855 394.341 379.006 398.239L378.126 375.802C378.269 379.39 378.412 383.046 378.556 386.771Z" fill="#8424FE" stroke="black"/>
<path d="M236.559 330.554L195.634 491.109H156.957L135.145 406.784C134.695 405.135 134.096 402.661 133.346 399.363C132.747 396.065 131.997 392.467 131.097 388.57C130.348 384.672 129.673 380.999 129.073 377.551C128.474 373.953 128.024 371.18 127.724 369.231C127.574 371.18 127.125 373.953 126.375 377.551C125.775 380.999 125.101 384.672 124.351 388.57C123.602 392.317 122.852 395.915 122.102 399.363C121.353 402.661 120.753 405.21 120.304 407.009L98.7164 491.109H60.0393L19.1137 330.554H52.6187L73.0816 418.252C73.6812 420.8 74.3558 423.949 75.1054 427.696C75.855 431.294 76.6045 435.117 77.3541 439.164C78.1036 443.063 78.7782 446.885 79.3779 450.633C80.1274 454.38 80.6521 457.603 80.9519 460.302C81.2518 457.454 81.7015 454.23 82.3011 450.633C82.9007 446.885 83.5753 443.137 84.3249 439.389C85.0745 435.492 85.7491 431.894 86.3487 428.596C87.0983 425.148 87.7729 422.449 88.3725 420.501L111.759 330.554H143.915L167.301 420.501C167.75 422.449 168.35 425.148 169.1 428.596C169.849 431.894 170.598 435.492 171.348 439.389C172.098 443.287 172.773 447.11 173.372 450.857C173.971 454.455 174.421 457.603 174.721 460.302C175.171 456.554 175.846 452.131 176.745 447.035C177.644 441.788 178.619 436.541 179.668 431.294C180.868 426.047 181.842 421.7 182.592 418.252L203.054 330.554H236.559ZM316.791 491.109H243.709V471.77L263.272 462.775V358.887L243.709 349.892V330.554H316.791V349.892L297.227 358.887V462.775L316.791 471.77V491.109ZM486.492 491.109H443.317L373.384 369.681H372.484C372.634 373.428 372.784 377.251 372.934 381.149C373.084 384.897 373.233 388.719 373.384 392.617C373.683 396.365 373.908 400.188 374.059 404.085C374.208 407.833 374.358 411.656 374.508 415.553V491.109H344.151V330.554H387.101L456.809 450.857H457.484C457.333 447.11 457.184 443.437 457.034 439.839C456.884 436.091 456.734 432.418 456.585 428.821C456.585 425.073 456.509 421.4 456.36 417.802C456.209 414.054 456.059 410.307 455.91 406.559V330.554H486.492V491.109Z" fill="white"/>
<rect x="451.982" y="205.753" width="6.74599" height="6.74599" fill="#8424FE"/>
<rect x="205.753" y="281.083" width="6.74599" height="4.49733" fill="#8424FE"/>
<rect x="26.984" y="222.618" width="12.3677" height="2.24866" fill="#8424FE"/>
<rect x="79.8276" y="473.344" width="13.492" height="1.12433" fill="#8424FE"/>
<rect x="35.9786" y="348.543" width="6.74599" height="6.74599" fill="#8424FE"/>
<rect x="202.38" y="394.641" width="6.74599" height="6.74599" fill="#8424FE"/>
<rect x="279.959" y="438.49" width="1.12433" height="17.9893" transform="rotate(-180 279.959 438.49)" fill="#8424FE"/>
<rect x="295.699" y="468.73" width="1.12433" height="17.9893" transform="rotate(-63.6912 295.699 468.73)" fill="#8424FE"/>
<rect x="359.786" y="342.922" width="2.24866" height="21.3623" fill="#8424FE"/>
<rect x="440.738" y="455.355" width="6.74599" height="6.74599" fill="#8424FE"/>
<rect x="467.722" y="407.009" width="8.99466" height="1.12433" fill="#8424FE"/>
<rect x="535.182" y="410.382" width="6.74599" height="6.74599" fill="#8424FE"/>
<rect x="720.697" y="283.332" width="30.357" height="2.24866" fill="#8424FE"/>
<rect width="22.4866" height="2.24866" transform="matrix(1 0 0 -1 656.61 486.836)" fill="#8424FE"/>
</svg>
