<svg width="20" height="20" viewBox="0 0 15 15" fill="none" xmlns="http://www.w3.org/2000/svg">
<path d="M12.4876 3.23077C11.2935 2.26983 9.4044 2.10694 9.32354 2.10108C9.19814 2.09054 9.07861 2.16085 9.02705 2.27687C9.02236 2.2839 8.98135 2.37882 8.93565 2.52648C9.72549 2.66007 10.6958 2.92843 11.5735 3.47335C11.7142 3.56007 11.7575 3.74523 11.6708 3.88585C11.6134 3.97843 11.5161 4.02882 11.4153 4.02882C11.3614 4.02882 11.3063 4.01358 11.2571 3.98312C9.74775 3.04679 7.86338 2.99991 7.5001 2.99991C7.13682 2.99991 5.25127 3.04679 3.74307 3.98312C3.60244 4.07101 3.41729 4.02765 3.33057 3.88702C3.24268 3.74523 3.28604 3.56124 3.42666 3.47335C4.30439 2.9296 5.27471 2.66007 6.06455 2.52765C6.01885 2.37882 5.97783 2.28507 5.97432 2.27687C5.92158 2.16085 5.80322 2.08819 5.67666 2.10108C5.5958 2.10694 3.70674 2.26983 2.49619 3.24366C1.86455 3.82843 0.600098 7.24562 0.600098 10.1999C0.600098 10.2526 0.61416 10.303 0.639942 10.3487C1.51182 11.8816 3.89189 12.2823 4.43447 12.2999C4.43682 12.2999 4.44033 12.2999 4.44385 12.2999C4.53994 12.2999 4.63018 12.2542 4.68643 12.1769L5.23486 11.4222C3.75479 11.0401 2.99893 10.3909 2.95557 10.3523C2.83135 10.2433 2.81963 10.0534 2.92979 9.92921C3.03877 9.80499 3.22861 9.79327 3.35283 9.90226C3.37041 9.91866 4.7626 11.0999 7.5001 11.0999C10.2423 11.0999 11.6345 9.91398 11.6485 9.90226C11.7728 9.79444 11.9614 9.80499 12.0716 9.93038C12.1806 10.0546 12.1688 10.2433 12.0446 10.3523C12.0013 10.3909 11.2454 11.0401 9.76533 11.4222L10.3138 12.1769C10.37 12.2542 10.4603 12.2999 10.5563 12.2999C10.5599 12.2999 10.5634 12.2999 10.5657 12.2999C11.1083 12.2823 13.4884 11.8816 14.3603 10.3487C14.386 10.303 14.4001 10.2526 14.4001 10.1999C14.4001 7.24562 13.1356 3.82843 12.4876 3.23077ZM5.5501 8.99991C4.97002 8.99991 4.5001 8.46319 4.5001 7.79991C4.5001 7.13663 4.97002 6.59991 5.5501 6.59991C6.13018 6.59991 6.6001 7.13663 6.6001 7.79991C6.6001 8.46319 6.13018 8.99991 5.5501 8.99991ZM9.4501 8.99991C8.87002 8.99991 8.4001 8.46319 8.4001 7.79991C8.4001 7.13663 8.87002 6.59991 9.4501 6.59991C10.0302 6.59991 10.5001 7.13663 10.5001 7.79991C10.5001 8.46319 10.0302 8.99991 9.4501 8.99991Z" fill="#AAA5A5"/>
</svg>
