<svg width="20" height="20" viewBox="0 0 15 15" fill="none" xmlns="http://www.w3.org/2000/svg">
<path d="M12.2204 1.87309C12.0629 1.88041 11.9146 1.92619 11.7827 1.97746H11.7809C11.6472 2.03056 11.0119 2.29789 10.0469 2.70256C9.08193 3.10905 7.82948 3.6364 6.5862 4.16008C4.10329 5.20561 1.66249 6.23466 1.66249 6.23466L1.69179 6.22368C1.69179 6.22368 1.52333 6.27861 1.34755 6.39946C1.25783 6.45805 1.15895 6.53862 1.07289 6.66496C0.986832 6.7913 0.917251 6.98539 0.942886 7.18498C0.985001 7.52372 1.20473 7.72697 1.3622 7.83867C1.5215 7.95219 1.67348 8.00529 1.67348 8.00529H1.67714L3.96596 8.77617C4.0685 9.10576 4.66359 11.0613 4.80641 11.5118C4.89064 11.7809 4.97304 11.9494 5.07558 12.0776C5.12502 12.1435 5.18361 12.1984 5.25319 12.2424C5.28066 12.2588 5.30995 12.2717 5.33925 12.2826C5.3484 12.2881 5.35756 12.29 5.36855 12.2918L5.34474 12.2863C5.35207 12.2881 5.35756 12.2936 5.36305 12.2955C5.38136 12.3009 5.39418 12.3028 5.41798 12.3064C5.78053 12.4163 6.07167 12.1911 6.07167 12.1911L6.08815 12.1783L7.43947 10.9478L9.70448 12.6855L9.75575 12.7074C10.2282 12.9143 10.7061 12.799 10.9588 12.5957C11.2133 12.3907 11.3122 12.1288 11.3122 12.1288L11.3286 12.0867L13.0791 3.12004C13.1286 2.89848 13.1414 2.69157 13.0864 2.49016C13.0315 2.28874 12.8905 2.10014 12.7202 1.99943C12.5481 1.89689 12.3778 1.86577 12.2204 1.87309ZM12.1727 2.83439C12.1709 2.86369 12.1764 2.86003 12.1636 2.91679V2.92228L10.4296 11.7956C10.4223 11.8084 10.4094 11.8359 10.3747 11.8633C10.338 11.8926 10.3087 11.9109 10.1568 11.8505L7.38637 9.72648L5.71278 11.2518L6.06435 9.00688C6.06435 9.00688 10.4039 4.96208 10.5907 4.78813C10.7775 4.61418 10.7152 4.57756 10.7152 4.57756C10.728 4.36516 10.4332 4.5153 10.4332 4.5153L4.72585 8.05107L4.72401 8.04191L1.98842 7.12089V7.11906C1.98659 7.11906 1.98293 7.11723 1.98109 7.11723C1.98293 7.11723 1.99574 7.11174 1.99574 7.11174L2.01039 7.10441L2.02504 7.09892C2.02504 7.09892 4.46767 6.06987 6.95058 5.02433C8.19386 4.50065 9.44631 3.97331 10.4094 3.56682C11.3726 3.16215 12.0849 2.86552 12.1251 2.84904C12.1636 2.83439 12.1453 2.83439 12.1727 2.83439Z" fill="#AAA5A5"/>
</svg>
