<svg width="15" height="15" viewBox="0 0 15 15" fill="none" xmlns="http://www.w3.org/2000/svg">
<path d="M14 3.46827C13.5215 3.68077 13.0075 3.82377 12.468 3.88827C13.019 3.55827 13.4415 3.03577 13.6405 2.41277C13.1255 2.71827 12.5545 2.94027 11.9465 3.06027C11.46 2.54177 10.767 2.21777 10 2.21777C8.52701 2.21777 7.33301 3.41227 7.33301 4.88477C7.33301 5.09377 7.35701 5.29777 7.40201 5.49227C5.18551 5.38127 3.22051 4.31927 1.90451 2.70527C1.67551 3.09927 1.54401 3.55727 1.54401 4.04677C1.54401 4.97177 2.01451 5.78827 2.73001 6.26627C2.29301 6.25227 1.88151 6.13227 1.52201 5.93277C1.52201 5.94427 1.52201 5.95477 1.52201 5.96627C1.52201 7.25877 2.44101 8.33677 3.66151 8.58127C3.43801 8.64227 3.20201 8.67477 2.95851 8.67477C2.78701 8.67477 2.61951 8.65777 2.45701 8.62727C2.79651 9.68677 3.78151 10.4583 4.94851 10.4798C4.03601 11.1953 2.88601 11.6218 1.63601 11.6218C1.42101 11.6218 1.20851 11.6093 0.999512 11.5843C2.18001 12.3408 3.58151 12.7823 5.08801 12.7823C9.99401 12.7823 12.676 8.71827 12.676 5.19377C12.676 5.07827 12.6735 4.96327 12.6685 4.84877C13.19 4.47227 13.6425 4.00277 14 3.46827Z" fill="#AAA5A5"/>
</svg>
