<svg width="15" height="15" viewBox="0 0 15 15" fill="none" xmlns="http://www.w3.org/2000/svg">
<path d="M0.236744 3.32285C0.189813 3.34338 0.116482 3.39911 0.0754175 3.44311C-0.267768 3.81563 0.600462 6.04195 1.86468 8.02774C2.49825 9.01917 2.9969 9.66154 3.55421 10.2042C4.32564 10.9522 5.13227 11.4625 6.01517 11.7559C6.57541 11.9436 6.88047 11.9964 7.48177 12.014C8.21214 12.0345 8.52013 11.9671 8.68146 11.75C8.74012 11.6708 8.74306 11.6239 8.75772 10.6794C8.77239 9.84047 8.78119 9.67328 8.82225 9.57941C8.88385 9.44155 8.97771 9.40342 9.22997 9.41809C9.71101 9.44449 10.3886 9.95487 11.4709 11.1106C11.7877 11.4508 12.1104 11.7735 12.1896 11.8321C12.4506 12.0228 12.4712 12.0257 13.6444 12.0169C14.6799 12.0081 14.7004 12.0081 14.8031 11.9407C15.0495 11.7881 15.0641 11.5329 14.85 11.1047C14.5977 10.606 14.0434 9.9314 13.005 8.86664C12.6706 8.52639 12.3802 8.20667 12.3538 8.1568C12.3274 8.10694 12.3069 8.00721 12.3069 7.93388C12.3069 7.81361 12.3333 7.76082 12.5445 7.45576C13.9172 5.45237 14.5127 4.44334 14.6535 3.88016C14.7327 3.56337 14.7004 3.44604 14.5068 3.34631C14.3807 3.28178 14.3572 3.28178 13.3687 3.28178C12.6853 3.28178 12.3216 3.29352 12.2453 3.31698C12.0634 3.36978 11.9139 3.51937 11.8053 3.75696C11.2685 4.92732 10.676 5.93635 10.1041 6.65499C9.85768 6.96884 9.44703 7.36483 9.28863 7.44696C9.03344 7.57602 8.85452 7.50563 8.78999 7.2563C8.76945 7.17124 8.75772 6.54939 8.75772 5.37317C8.75772 3.71297 8.75479 3.61324 8.70199 3.49591C8.59933 3.27592 8.64919 3.28178 7.02126 3.28178C5.62212 3.28178 5.57225 3.28472 5.47839 3.34045C5.36106 3.41378 5.2848 3.57804 5.30827 3.71003C5.32 3.76283 5.40799 3.90949 5.50479 4.03562C5.72771 4.32308 5.81278 4.49027 5.88611 4.77186C5.93891 4.97425 5.94184 5.10331 5.94184 6.44673C5.94184 7.35896 5.93011 7.94268 5.91251 8.01014C5.80398 8.39439 5.37866 8.2184 4.86242 7.57896C4.19071 6.74592 3.54834 5.5257 2.92063 3.88016C2.80624 3.5751 2.68598 3.41084 2.53051 3.33751C2.41612 3.28765 2.32812 3.28178 1.36603 3.28472C0.56233 3.28472 0.304208 3.29352 0.236744 3.32285Z" fill="#AAA5A5"/>
</svg>
