<svg width="15" height="12" viewBox="0 0 15 12" fill="none" xmlns="http://www.w3.org/2000/svg">
<path d="M5.22949 0.55987C3.92871 0.623888 1.85449 0.807211 1.4502 0.894508C0.899414 1.01381 0.375 1.53468 0.237305 2.0992C0.134766 2.52114 0 4.60171 0 5.78022C0 6.95872 0.134766 9.0393 0.237305 9.46123C0.375 10.0258 0.899414 10.5437 1.4502 10.6659C1.6582 10.7096 2.8125 10.8318 3.67676 10.9016C6.13184 11.0966 8.83301 11.0966 11.332 10.9016C12.1875 10.8347 13.3359 10.7125 13.5498 10.6659C14.1035 10.5437 14.625 10.0258 14.7627 9.46123C14.8652 9.0393 15 6.95872 15 5.78022C15 4.60171 14.8652 2.52114 14.7627 2.0992C14.625 1.53468 14.1006 1.01672 13.5498 0.894508C13.1221 0.801391 11.1094 0.626797 9.68262 0.55696C8.58398 0.504582 6.3252 0.504582 5.22949 0.55987ZM8.1416 4.54351C9.1582 5.2157 9.9873 5.77149 9.9873 5.78022C9.9873 5.79477 6.31641 8.23035 6.2666 8.24781C6.25195 8.25363 6.24023 7.23516 6.24023 5.78022C6.24023 4.32527 6.25195 3.30681 6.2666 3.31263C6.28125 3.31554 7.125 3.87133 8.1416 4.54351Z" fill="#AAA5A5"/>
</svg>
