<svg width="42" height="42" viewBox="0 0 42 42" fill="none" xmlns="http://www.w3.org/2000/svg">
<path d="M34.965 9.04616C31.6214 6.35554 26.332 5.89944 26.1056 5.88304C25.7545 5.85351 25.4198 6.05038 25.2755 6.37523C25.2623 6.39491 25.1475 6.66069 25.0195 7.07413C27.2311 7.44819 29.948 8.1996 32.4056 9.72538C32.7994 9.96819 32.9208 10.4866 32.678 10.8804C32.5172 11.1396 32.2448 11.2807 31.9627 11.2807C31.8117 11.2807 31.6575 11.238 31.5197 11.1527C27.2934 8.53101 22.0172 8.39976 21 8.39976C19.9828 8.39976 14.7033 8.53101 10.4803 11.1527C10.0866 11.3988 9.56813 11.2774 9.32531 10.8837C9.07922 10.4866 9.20062 9.97148 9.59438 9.72538C12.052 8.20288 14.7689 7.44819 16.9805 7.07741C16.8525 6.66069 16.7377 6.39819 16.7278 6.37523C16.5802 6.05038 16.2487 5.84694 15.8944 5.88304C15.668 5.89944 10.3786 6.35554 6.98906 9.08226C5.22047 10.7196 1.68 20.2877 1.68 28.5598C1.68 28.7074 1.71938 28.8485 1.79156 28.9765C4.23281 33.2684 10.897 34.3905 12.4163 34.4398C12.4228 34.4398 12.4327 34.4398 12.4425 34.4398C12.7116 34.4398 12.9642 34.3118 13.1217 34.0952L14.6573 31.9821C10.5131 30.9124 8.39672 29.0946 8.27531 28.9863C7.9275 28.6812 7.89469 28.1496 8.20312 27.8018C8.50828 27.454 9.03984 27.4212 9.38766 27.7263C9.43688 27.7723 13.335 31.0798 21 31.0798C28.6781 31.0798 32.5763 27.7591 32.6156 27.7263C32.9634 27.4244 33.4917 27.454 33.8002 27.8051C34.1053 28.1529 34.0725 28.6812 33.7247 28.9863C33.6033 29.0946 31.4869 30.9124 27.3427 31.9821L28.8783 34.0952C29.0358 34.3118 29.2884 34.4398 29.5575 34.4398C29.5673 34.4398 29.5772 34.4398 29.5837 34.4398C31.103 34.3905 37.7672 33.2684 40.2084 28.9765C40.2806 28.8485 40.32 28.7074 40.32 28.5598C40.32 20.2877 36.7795 10.7196 34.965 9.04616ZM15.54 25.1998C13.9158 25.1998 12.6 23.6969 12.6 21.8398C12.6 19.9826 13.9158 18.4798 15.54 18.4798C17.1642 18.4798 18.48 19.9826 18.48 21.8398C18.48 23.6969 17.1642 25.1998 15.54 25.1998ZM26.46 25.1998C24.8358 25.1998 23.52 23.6969 23.52 21.8398C23.52 19.9826 24.8358 18.4798 26.46 18.4798C28.0842 18.4798 29.4 19.9826 29.4 21.8398C29.4 23.6969 28.0842 25.1998 26.46 25.1998Z" fill="#AAA5A5"/>
</svg>
