<svg width="42" height="42" viewBox="0 0 42 42" fill="none" xmlns="http://www.w3.org/2000/svg">
<path d="M34.2173 5.24504C33.7764 5.26555 33.3611 5.39372 32.992 5.53728H32.9868C32.6126 5.68596 30.8335 6.4345 28.1316 7.56755C25.4297 8.70574 21.9229 10.1823 18.4417 11.6486C11.4895 14.5761 4.65528 17.4574 4.65528 17.4574L4.73731 17.4267C4.73731 17.4267 4.26563 17.5805 3.77344 17.9189C3.52222 18.0829 3.24537 18.3085 3.0044 18.6623C2.76343 19.016 2.56861 19.5595 2.64039 20.1183C2.75831 21.0668 3.37354 21.6359 3.81446 21.9487C4.2605 22.2665 4.68604 22.4152 4.68604 22.4152H4.6963L11.105 24.5737C11.3921 25.4965 13.0584 30.9721 13.4583 32.2333C13.6941 32.987 13.9248 33.4587 14.2119 33.8176C14.3504 34.0021 14.5144 34.1559 14.7092 34.279C14.7861 34.3251 14.8682 34.361 14.9502 34.3918C14.9758 34.4072 15.0015 34.4123 15.0322 34.4174L14.9656 34.402C14.9861 34.4072 15.0015 34.4225 15.0169 34.4277C15.0681 34.443 15.104 34.4482 15.1707 34.4584C16.1858 34.766 17.001 34.1354 17.001 34.1354L17.0471 34.0995L20.8308 30.6542L27.1729 35.5197L27.3164 35.5812C28.6392 36.1606 29.9773 35.8376 30.6848 35.2685C31.3975 34.6943 31.6743 33.9611 31.6743 33.9611L31.7205 33.8432L36.6218 8.7365C36.7603 8.11614 36.7962 7.53679 36.6423 6.97283C36.4885 6.40886 36.0938 5.88078 35.617 5.5988C35.135 5.31169 34.6582 5.22453 34.2173 5.24504ZM34.084 7.93669C34.0789 8.01872 34.0943 8.00847 34.0584 8.1674V8.18279L29.2031 33.028C29.1826 33.0639 29.1467 33.1408 29.0493 33.2177C28.9468 33.2997 28.8648 33.351 28.4392 33.1818L20.6821 27.2345L15.9961 31.5053L16.9805 25.2197C16.9805 25.2197 29.1314 13.8942 29.6543 13.4072C30.1773 12.9201 30.0029 12.8176 30.0029 12.8176C30.0388 12.2228 29.2134 12.6432 29.2134 12.6432L13.2327 22.5434L13.2275 22.5177L5.56788 19.9389V19.9338C5.56275 19.9338 5.5525 19.9286 5.54737 19.9286C5.5525 19.9286 5.58839 19.9133 5.58839 19.9133L5.6294 19.8927L5.67042 19.8774C5.67042 19.8774 12.5098 16.996 19.4619 14.0685C22.9431 12.6022 26.45 11.1257 29.1467 9.98747C31.8435 8.85442 33.8379 8.02385 33.9507 7.97771C34.0584 7.93669 34.0071 7.93669 34.084 7.93669Z" fill="#AAA5A5"/>
</svg>
