<svg width="42" height="42" viewBox="0 0 42 42" fill="none" xmlns="http://www.w3.org/2000/svg">
<path d="M39.2 9.71185C37.8602 10.3068 36.421 10.7072 34.9104 10.8878C36.4532 9.96385 37.6362 8.50085 38.1934 6.75645C36.7514 7.61185 35.1526 8.23345 33.4502 8.56945C32.088 7.11765 30.1476 6.21045 28 6.21045C23.8756 6.21045 20.5324 9.55505 20.5324 13.678C20.5324 14.2632 20.5996 14.8344 20.7256 15.379C14.5194 15.0682 9.0174 12.0946 5.3326 7.57545C4.6914 8.67865 4.3232 9.96105 4.3232 11.3316C4.3232 13.9216 5.6406 16.2078 7.644 17.5462C6.4204 17.507 5.2682 17.171 4.2616 16.6124C4.2616 16.6446 4.2616 16.674 4.2616 16.7062C4.2616 20.3252 6.8348 23.3436 10.2522 24.0282C9.6264 24.199 8.9656 24.29 8.2838 24.29C7.8036 24.29 7.3346 24.2424 6.8796 24.157C7.8302 27.1236 10.5882 29.2838 13.8558 29.344C11.3008 31.3474 8.0808 32.5416 4.5808 32.5416C3.9788 32.5416 3.3838 32.5066 2.7986 32.4366C6.104 34.5548 10.0282 35.791 14.2464 35.791C27.9832 35.791 35.4928 24.4118 35.4928 14.5432C35.4928 14.2198 35.4858 13.8978 35.4718 13.5772C36.932 12.523 38.199 11.2084 39.2 9.71185Z" fill="#AAA5A5"/>
</svg>
