<svg width="36" height="36" viewBox="0 0 36 36" fill="none" xmlns="http://www.w3.org/2000/svg">
<path d="M9.69274 29.3645L10.9597 30.1048C13.0964 31.3509 15.5265 32.0051 18 32C20.7689 32 23.4757 31.1789 25.778 29.6406C28.0803 28.1022 29.8747 25.9157 30.9343 23.3576C31.9939 20.7994 32.2712 17.9845 31.731 15.2687C31.1908 12.553 29.8574 10.0584 27.8995 8.10051C25.9416 6.14257 23.447 4.8092 20.7313 4.26901C18.0155 3.72881 15.2006 4.00606 12.6424 5.06569C10.0843 6.12531 7.89776 7.91973 6.35942 10.222C4.82108 12.5243 3.99999 15.2311 3.99999 18C3.99999 20.513 4.65974 22.9228 5.89699 25.042L6.63549 26.309L5.49274 30.5108L9.69274 29.3645ZM0.506993 35.5L2.87299 26.806C1.31398 24.1335 0.494911 21.094 0.499993 18C0.499993 8.33475 8.33474 0.5 18 0.5C27.6652 0.5 35.5 8.33475 35.5 18C35.5 27.6653 27.6652 35.5 18 35.5C14.9074 35.505 11.8691 34.6865 9.19749 33.1288L0.506993 35.5ZM11.6842 9.789C11.9187 9.7715 12.155 9.7715 12.3895 9.782C12.484 9.789 12.5785 9.7995 12.673 9.81C12.9512 9.8415 13.2575 10.0113 13.3607 10.2458C13.8822 11.4288 14.3897 12.6205 14.8797 13.8158C14.9882 14.0818 14.9235 14.423 14.717 14.7555C14.575 14.9803 14.4213 15.1976 14.2567 15.4065C14.059 15.6603 13.6337 16.1258 13.6337 16.1258C13.6337 16.1258 13.4605 16.3323 13.527 16.5895C13.5515 16.6875 13.632 16.8293 13.7055 16.9483L13.8087 17.1145C14.2567 17.8618 14.8587 18.6195 15.5937 19.3335C15.8037 19.5365 16.0085 19.7448 16.229 19.939C17.048 20.6618 17.9755 21.2515 18.9765 21.689L18.9852 21.6925C19.134 21.7573 19.2092 21.7923 19.4262 21.885C19.5347 21.9305 19.6467 21.9708 19.7605 22.0005C19.878 22.0304 20.0018 22.0248 20.1162 21.9843C20.2305 21.9438 20.3302 21.8703 20.4027 21.773C21.6697 20.2383 21.7852 20.1385 21.7957 20.1385V20.142C21.8838 20.0599 21.9883 19.9976 22.1024 19.9593C22.2165 19.9209 22.3375 19.9075 22.4572 19.9198C22.5622 19.9268 22.669 19.946 22.767 19.9898C23.6962 20.415 25.217 21.0783 25.217 21.0783L26.2355 21.535C26.407 21.6173 26.5627 21.8115 26.568 21.9988C26.575 22.116 26.5855 22.305 26.5452 22.6515C26.4892 23.1048 26.3527 23.649 26.2162 23.9343C26.1228 24.1289 25.9987 24.3073 25.8487 24.4628C25.6722 24.6482 25.4788 24.8169 25.2712 24.9668C25.1994 25.0208 25.1265 25.0733 25.0525 25.1243C24.8348 25.2623 24.6112 25.3908 24.3822 25.5093C23.9317 25.7486 23.434 25.886 22.9245 25.9118C22.6007 25.9293 22.277 25.9538 21.9515 25.9363C21.9375 25.9363 20.9575 25.784 20.9575 25.784C18.4694 25.1296 16.1684 23.9036 14.2375 22.2035C13.842 21.8553 13.4762 21.4808 13.1017 21.108C11.5442 19.5593 10.3682 17.888 9.65424 16.3095C9.28879 15.5348 9.09138 14.6915 9.07499 13.835C9.06778 12.7725 9.4151 11.7379 10.062 10.895C10.1897 10.7305 10.3105 10.559 10.5187 10.3613C10.741 10.1513 10.881 10.0393 11.0332 9.96225C11.2357 9.86081 11.4565 9.80128 11.6825 9.78725L11.6842 9.789Z" fill="#AAA5A5"/>
</svg>
