<svg width="42" height="42" viewBox="0 0 42 42" fill="none" xmlns="http://www.w3.org/2000/svg">
<path d="M0.662884 9.3026C0.531476 9.36009 0.326151 9.51614 0.211169 9.63934C-0.749751 10.6824 1.68129 16.9161 5.22109 22.4763C6.9951 25.2523 8.39131 27.051 9.95177 28.5704C12.1118 30.6647 14.3704 32.0938 16.8425 32.9151C18.4112 33.4407 19.2653 33.5885 20.949 33.6378C22.994 33.6953 23.8564 33.5064 24.3081 32.8986C24.4723 32.6769 24.4806 32.5455 24.5216 29.9009C24.5627 27.552 24.5873 27.0838 24.7023 26.821C24.8748 26.435 25.1376 26.3282 25.8439 26.3693C27.1908 26.4432 29.088 27.8723 32.1186 31.1082C33.0056 32.0609 33.9091 32.9643 34.1308 33.1286C34.8618 33.6624 34.9193 33.6707 38.2045 33.646C41.1036 33.6214 41.1611 33.6214 41.4486 33.4325C42.1385 33.0054 42.1795 32.2909 41.58 31.0918C40.8737 29.6956 39.3214 27.8066 36.414 24.8252C35.4777 23.8725 34.6647 22.9773 34.5907 22.8377C34.5168 22.6981 34.4593 22.4188 34.4593 22.2135C34.4593 21.8767 34.5333 21.7289 35.1246 20.8748C38.9683 15.2653 40.6355 12.44 41.0297 10.8631C41.2515 9.97607 41.1611 9.64755 40.6191 9.36831C40.2659 9.18762 40.2002 9.18762 37.4324 9.18762C35.5188 9.18762 34.5004 9.22047 34.2869 9.28618C33.7777 9.43401 33.3588 9.85288 33.0549 10.5181C31.5519 13.7951 29.8929 16.6204 28.2914 18.6326C27.6015 19.5114 26.4517 20.6202 26.0082 20.8501C25.2936 21.2115 24.7926 21.0144 24.612 20.3163C24.5545 20.0781 24.5216 18.3369 24.5216 15.0435C24.5216 10.3949 24.5134 10.1157 24.3656 9.78717C24.0781 9.1712 24.2177 9.18762 19.6595 9.18762C15.7419 9.18762 15.6023 9.19584 15.3395 9.35188C15.011 9.55721 14.7974 10.0171 14.8631 10.3867C14.896 10.5346 15.1424 10.9452 15.4134 11.2984C16.0376 12.1032 16.2758 12.5714 16.4811 13.3598C16.6289 13.9265 16.6371 14.2879 16.6371 18.0495C16.6371 20.6037 16.6043 22.2381 16.555 22.427C16.2511 23.5029 15.0603 23.0101 13.6148 21.2197C11.734 18.8872 9.93535 15.4706 8.17777 10.8631C7.85746 10.0089 7.52073 9.54899 7.08544 9.34367C6.76514 9.20405 6.51875 9.18762 3.82488 9.19584C1.57453 9.19584 0.851782 9.22047 0.662884 9.3026Z" fill="#AAA5A5"/>
</svg>
