<svg width="42" height="42" viewBox="0 0 42 42" fill="none" xmlns="http://www.w3.org/2000/svg">
<g clip-path="url(#clip0_291_4359)">
<path d="M12.6927 32.3645L13.9597 33.1048C16.0964 34.3509 18.5265 35.0051 21 35C23.7689 35 26.4757 34.1789 28.778 32.6406C31.0803 31.1022 32.8747 28.9157 33.9343 26.3576C34.9939 23.7994 35.2712 20.9845 34.731 18.2687C34.1908 15.553 32.8574 13.0584 30.8995 11.1005C28.9416 9.14257 26.447 7.8092 23.7313 7.26901C21.0155 6.72881 18.2006 7.00606 15.6424 8.06569C13.0843 9.12531 10.8978 10.9197 9.35942 13.222C7.82108 15.5243 6.99999 18.2311 6.99999 21C6.99999 23.513 7.65974 25.9228 8.89699 28.042L9.63549 29.309L8.49274 33.5108L12.6927 32.3645ZM3.50699 38.5L5.87299 29.806C4.31398 27.1335 3.49491 24.094 3.49999 21C3.49999 11.3348 11.3347 3.5 21 3.5C30.6652 3.5 38.5 11.3348 38.5 21C38.5 30.6653 30.6652 38.5 21 38.5C17.9074 38.505 14.8691 37.6866 12.1975 36.1288L3.50699 38.5ZM14.6842 12.789C14.9187 12.7715 15.155 12.7715 15.3895 12.782C15.484 12.789 15.5785 12.7995 15.673 12.81C15.9512 12.8415 16.2575 13.0113 16.3607 13.2458C16.8822 14.4288 17.3897 15.6205 17.8797 16.8158C17.9882 17.0818 17.9235 17.423 17.717 17.7555C17.575 17.9803 17.4213 18.1976 17.2567 18.4065C17.059 18.6603 16.6337 19.1258 16.6337 19.1258C16.6337 19.1258 16.4605 19.3323 16.527 19.5895C16.5515 19.6875 16.632 19.8293 16.7055 19.9483L16.8087 20.1145C17.2567 20.8618 17.8587 21.6195 18.5937 22.3335C18.8037 22.5365 19.0085 22.7448 19.229 22.939C20.048 23.6618 20.9755 24.2515 21.9765 24.689L21.9852 24.6925C22.134 24.7573 22.2092 24.7923 22.4262 24.885C22.5347 24.9305 22.6467 24.9708 22.7605 25.0005C22.878 25.0304 23.0018 25.0248 23.1162 24.9843C23.2305 24.9438 23.3302 24.8703 23.4027 24.773C24.6697 23.2383 24.7852 23.1385 24.7957 23.1385V23.142C24.8838 23.0599 24.9883 22.9976 25.1024 22.9593C25.2165 22.9209 25.3375 22.9075 25.4572 22.9198C25.5622 22.9268 25.669 22.946 25.767 22.9898C26.6962 23.415 28.217 24.0783 28.217 24.0783L29.2355 24.535C29.407 24.6173 29.5627 24.8115 29.568 24.9988C29.575 25.116 29.5855 25.305 29.5452 25.6515C29.4892 26.1048 29.3527 26.649 29.2162 26.9343C29.1228 27.1289 28.9987 27.3073 28.8487 27.4628C28.6722 27.6482 28.4788 27.8169 28.2712 27.9668C28.1994 28.0208 28.1265 28.0733 28.0525 28.1243C27.8348 28.2623 27.6112 28.3908 27.3822 28.5093C26.9317 28.7486 26.434 28.886 25.9245 28.9118C25.6007 28.9293 25.277 28.9538 24.9515 28.9363C24.9375 28.9363 23.9575 28.784 23.9575 28.784C21.4694 28.1296 19.1684 26.9036 17.2375 25.2035C16.842 24.8553 16.4762 24.4808 16.1017 24.108C14.5442 22.5593 13.3682 20.888 12.6542 19.3095C12.2888 18.5348 12.0914 17.6915 12.075 16.835C12.0678 15.7725 12.4151 14.7379 13.062 13.895C13.1897 13.7305 13.3105 13.559 13.5187 13.3613C13.741 13.1513 13.881 13.0393 14.0332 12.9623C14.2357 12.8608 14.4565 12.8013 14.6825 12.7873L14.6842 12.789Z" fill="#AAA5A5"/>
</g>
<defs>
<clipPath id="clip0_291_4359">
<rect width="42" height="42" fill="white"/>
</clipPath>
</defs>
</svg>
