<svg width="14" height="16" viewBox="0 0 14 16" fill="none" xmlns="http://www.w3.org/2000/svg">
<path fill-rule="evenodd" clip-rule="evenodd" d="M10.8425 16L10.8415 14.437C10.5514 14.4037 10.0601 14.2544 10.0601 13.8802C9.53784 13.629 8.03006 12.6067 8.01019 11.9689C8.98836 11.899 8.93447 11.437 8.08726 11.3906C8.23811 10.155 9.29513 9.57266 10.3042 9.1212C10.883 8.86226 11.3281 8.50707 11.7496 8.094C13.5415 6.33846 13.9783 3.17383 14 0.786795H11.8804C11.8938 1.09049 11.9346 1.36362 11.7481 1.57442C11.605 1.73606 11.2749 1.89613 11.0084 1.8957C11.0163 1.26616 11.0242 0.636481 11.0321 0.00691724C8.34835 0.00455641 5.66467 0.00229001 2.98099 0L2.99599 1.89584C2.725 1.89584 2.41808 1.74643 2.26809 1.58688C2.06883 1.37502 2.11058 1.10043 2.12439 0.786795H0C0.00364876 1.15119 0.027566 1.50078 0.0420828 1.86659C0.0576143 2.25809 0.120371 2.60789 0.140994 2.98383L0.319029 4.0781C0.355766 4.33258 0.488476 4.84993 0.580673 5.11229C1.14812 6.7266 1.76148 8.00202 3.36202 8.94855C4.22668 9.45993 5.76087 10.0504 5.9172 11.3906C4.96923 11.4443 5.07701 11.9088 5.99523 11.9684C5.97567 12.3795 5.35621 12.9211 5.13834 13.0853C4.78463 13.352 4.37351 13.6736 3.94475 13.8799C3.92273 14.1699 3.78888 14.4163 3.12576 14.4327L3.12495 16H10.8425V16ZM4.35772 8.58729C3.96332 8.56087 3.04213 7.86429 2.73334 7.50875C2.30962 7.0209 1.93748 6.49189 1.67503 5.86454C1.21658 4.769 1.01569 3.84846 0.885311 2.68398C0.851817 2.38487 0.776139 1.73821 0.801855 1.45845L1.36155 1.45172C1.49859 1.84546 1.57597 2.00574 1.86079 2.22362C2.13123 2.43045 2.39622 2.52319 2.77344 2.6039C3.11581 2.67721 3.04175 2.56316 3.06843 2.9382C3.08208 3.13169 3.10547 3.3157 3.1245 3.51788C3.24307 4.77882 3.58812 6.47109 4.01072 7.66692C4.05924 7.80425 4.12803 8.00629 4.18293 8.13595C4.22653 8.2386 4.3487 8.49166 4.35772 8.58729ZM9.6536 8.58123C9.68905 8.39153 9.83085 8.11281 9.90273 7.90709C10.2067 7.03769 10.3006 6.7555 10.5123 5.79809C10.6205 5.30897 10.7162 4.80151 10.7867 4.29254C10.8145 4.09182 10.936 2.72027 10.9702 2.66817C11.0235 2.60459 11.1035 2.63481 11.256 2.60053C11.526 2.53978 11.8247 2.44851 12.0474 2.29438C12.3811 2.06353 12.5208 1.86315 12.6426 1.45687L13.2036 1.45203C13.2282 1.73387 13.1562 2.37925 13.1217 2.66569C13.0262 3.45468 12.9259 4.10679 12.6911 4.86851C12.3223 6.06529 11.6743 7.39337 10.5755 8.11735C10.3538 8.26339 9.94902 8.53687 9.6536 8.58123Z" fill="url(#paint0_linear_1_12186)"/>
<defs>
<linearGradient id="paint0_linear_1_12186" x1="5.94261" y1="-10.1704" x2="7.897" y2="19.148" gradientUnits="userSpaceOnUse">
<stop stop-color="#E3641C"/>
<stop offset="0.25" stop-color="#DC7338"/>
<stop offset="0.515625" stop-color="#F6C7AC"/>
<stop offset="0.734375" stop-color="#DC7338"/>
<stop offset="1" stop-color="#E3641C"/>
</linearGradient>
</defs>
</svg>
