<svg width="120" height="120" viewBox="0 0 120 120" fill="none" xmlns="http://www.w3.org/2000/svg">
<g clip-path="url(#clip0_291_3544)">
<path d="M98.5715 10.6569H109.751C112.352 10.6569 114.461 12.766 114.461 15.3671C114.461 17.9683 112.352 20.0774 109.751 20.0774H98.5715" stroke="white" stroke-width="2" stroke-miterlimit="10" stroke-linecap="round" stroke-linejoin="round"/>
<path d="M98.5715 20.0773H113.967C116.568 20.0773 118.677 22.1864 118.677 24.7875C118.677 27.3887 116.568 29.4978 113.967 29.4978H98.5715" stroke="white" stroke-width="2" stroke-miterlimit="10" stroke-linecap="round" stroke-linejoin="round"/>
<path d="M38.9183 9.81862V34.6234H62.629C65.282 39.9852 70.7909 43.6805 77.1788 43.6805H85.3778V38.9183H110.183C112.784 38.9183 114.893 36.8092 114.893 34.208C114.893 31.6069 112.784 29.4978 110.183 29.4978H98.5739M98.5715 10.6568H105.105C107.706 10.6568 109.815 8.54772 109.815 5.94657C109.815 3.34543 107.706 1.23633 105.105 1.23633H76.1626C72.2979 1.23633 68.2479 1.76051 60.9365 5.10837H34.208" stroke="white" stroke-width="2" stroke-miterlimit="10" stroke-linecap="round" stroke-linejoin="round"/>
<path d="M109.343 98.5715V109.751C109.343 112.352 107.234 114.461 104.633 114.461C102.032 114.461 99.9227 112.352 99.9227 109.751V98.5715" stroke="white" stroke-width="2" stroke-miterlimit="10" stroke-linecap="round" stroke-linejoin="round"/>
<path d="M99.9227 98.5715V113.967C99.9227 116.568 97.8136 118.677 95.2125 118.677C92.6114 118.677 90.5023 116.568 90.5023 113.967V98.5715" stroke="white" stroke-width="2" stroke-miterlimit="10" stroke-linecap="round" stroke-linejoin="round"/>
<path d="M110.18 38.9183H85.3766V62.629C80.0148 65.282 76.3196 70.7909 76.3196 77.1788V85.3778H81.083V110.183C81.083 112.784 83.1921 114.893 85.7932 114.893C88.3944 114.893 90.5035 112.784 90.5035 110.183V98.5739M109.343 98.5715V105.105C109.343 107.706 111.452 109.815 114.053 109.815C116.655 109.815 118.764 107.706 118.764 105.105V76.1626C118.764 72.2979 118.24 68.2479 114.892 60.9365V34.208" stroke="white" stroke-width="2" stroke-miterlimit="10" stroke-linecap="round" stroke-linejoin="round"/>
<path d="M21.4273 109.343H10.2488C7.64768 109.343 5.53857 107.234 5.53857 104.633C5.53857 102.032 7.64768 99.9228 10.2488 99.9228H21.4285" stroke="white" stroke-width="2" stroke-miterlimit="10" stroke-linecap="round" stroke-linejoin="round"/>
<path d="M21.4273 99.9228H6.03184C3.4307 99.9228 1.32159 97.8137 1.32159 95.2126C1.32159 92.6114 3.4307 90.5023 6.03184 90.5023H21.4273" stroke="white" stroke-width="2" stroke-miterlimit="10" stroke-linecap="round" stroke-linejoin="round"/>
<path d="M81.0818 110.18V85.3767H57.371C54.718 80.0149 49.2091 76.3196 42.8212 76.3196H34.6222V81.083H9.81858C7.21744 81.083 5.10834 83.1922 5.10834 85.7933C5.10834 88.3944 7.21744 90.5035 9.81858 90.5035H21.4273M21.4273 109.343H14.8935C12.2924 109.343 10.1833 111.452 10.1833 114.054C10.1833 116.655 12.2924 118.764 14.8935 118.764H43.8362C47.7008 118.764 51.7509 118.24 59.0623 114.892H85.7908" stroke="white" stroke-width="2" stroke-miterlimit="10" stroke-linecap="round" stroke-linejoin="round"/>
<path d="M10.6567 21.4273V10.2488C10.6567 7.64768 12.7658 5.53857 15.367 5.53857C17.9681 5.53857 20.0772 7.64768 20.0772 10.2488V21.4285" stroke="white" stroke-width="2" stroke-miterlimit="10" stroke-linecap="round" stroke-linejoin="round"/>
<path d="M20.0773 21.4274V6.0319C20.0773 3.43076 22.1864 1.32166 24.7875 1.32166C27.3887 1.32166 29.4978 3.43076 29.4978 6.0319V21.4274" stroke="white" stroke-width="2" stroke-miterlimit="10" stroke-linecap="round" stroke-linejoin="round"/>
<path d="M9.81856 81.0818H34.6234V57.3711C39.9851 54.718 43.6804 49.2092 43.6804 42.8213V34.6222H38.9182V9.81864C38.9182 7.2175 36.8091 5.1084 34.208 5.1084C31.6068 5.1084 29.4977 7.2175 29.4977 9.81864V21.4274M10.6568 21.4274V14.8936C10.6568 12.2925 8.54766 10.1833 5.94651 10.1833C3.34537 10.1833 1.23627 12.2925 1.23627 14.8948V43.8375C1.23627 47.7021 1.76045 51.7522 5.10831 59.0636V85.7921" stroke="white" stroke-width="2" stroke-miterlimit="10" stroke-linecap="round" stroke-linejoin="round"/>
</g>
<defs>
<clipPath id="clip0_291_3544">
<rect width="120" height="120" fill="white"/>
</clipPath>
</defs>
</svg>
