<svg width="120" height="120" viewBox="0 0 120 120" fill="none" xmlns="http://www.w3.org/2000/svg">
<g clip-path="url(#clip0_291_3491)">
<path d="M59.3803 14.1461C47.2559 14.1461 37.4264 23.9422 37.4264 36.0255V40.4632H40.0436C44.6012 40.4632 48.5974 38.1025 50.8937 34.5467C53.5044 35.6387 56.3712 36.2447 59.3803 36.2447C62.3894 36.2447 65.2563 35.6387 67.8669 34.5467C70.1619 38.1025 74.1594 40.4632 78.7171 40.4632H81.3342V36.0255C81.3342 23.9422 71.5048 14.1461 59.3803 14.1461Z" stroke="white" stroke-width="2" stroke-miterlimit="10" stroke-linecap="round" stroke-linejoin="round"/>
<path d="M9.28223 27.4762V20.1478H1.94313C0.839613 20.1478 0.241928 18.8585 0.959926 18.0218L14.4673 2.25369C14.9835 1.6503 15.9189 1.6503 16.435 2.25369L29.9437 18.0192C30.6604 18.856 30.064 20.1453 28.9605 20.1453H21.6214V24.5431" stroke="white" stroke-width="2" stroke-miterlimit="10" stroke-linecap="round" stroke-linejoin="round"/>
<path d="M21.6201 31.2216V35.6181" stroke="white" stroke-width="2" stroke-miterlimit="10" stroke-linecap="round" stroke-linejoin="round"/>
<path d="M15.4518 38.8762V43.2727" stroke="white" stroke-width="2" stroke-miterlimit="10" stroke-linecap="round" stroke-linejoin="round"/>
<path d="M9.28223 33.0936V37.4914" stroke="white" stroke-width="2" stroke-miterlimit="10" stroke-linecap="round" stroke-linejoin="round"/>
<path d="M98.3799 27.4762V20.1478H91.0408C89.9373 20.1478 89.3396 18.8585 90.0576 18.0218L103.565 2.25369C104.081 1.6503 105.017 1.6503 105.533 2.25369L119.041 18.0192C119.758 18.856 119.162 20.1453 118.058 20.1453H110.719V24.5431" stroke="white" stroke-width="2" stroke-miterlimit="10" stroke-linecap="round" stroke-linejoin="round"/>
<path d="M110.716 31.2216V35.6181" stroke="white" stroke-width="2" stroke-miterlimit="10" stroke-linecap="round" stroke-linejoin="round"/>
<path d="M104.548 38.8762V43.2727" stroke="white" stroke-width="2" stroke-miterlimit="10" stroke-linecap="round" stroke-linejoin="round"/>
<path d="M98.3799 33.0936V37.4914" stroke="white" stroke-width="2" stroke-miterlimit="10" stroke-linecap="round" stroke-linejoin="round"/>
<path d="M81.2398 40.4633H78.7171C77.6472 40.4633 76.6123 40.3227 75.62 40.0778V45.7262C75.62 48.0482 75.1207 50.2516 74.2371 52.2474C75.1776 52.7258 76.2268 53.021 77.3549 53.021C81.1661 53.021 84.2554 49.9422 84.2554 46.1439C84.2554 43.7832 83.0587 41.7023 81.2398 40.4633Z" stroke="white" stroke-width="2" stroke-miterlimit="10" stroke-linecap="round" stroke-linejoin="round"/>
<path d="M43.1407 40.0778C42.1471 40.3227 41.1121 40.4633 40.0436 40.4633H37.5209C35.7019 41.7023 34.5053 43.7832 34.5053 46.1439C34.5053 49.9422 37.5946 53.021 41.4058 53.021C42.5339 53.021 43.5831 52.7258 44.5236 52.2474C43.64 50.2516 43.1407 48.0482 43.1407 45.7262V40.0778V40.0778Z" stroke="white" stroke-width="2" stroke-miterlimit="10" stroke-linecap="round" stroke-linejoin="round"/>
<path d="M67.8669 34.5468C65.2563 35.6388 62.3894 36.2448 59.3803 36.2448C56.3712 36.2448 53.5044 35.6388 50.8937 34.5468C49.1369 37.2685 46.38 39.2785 43.1419 40.0778V45.7262C43.1419 54.6649 50.4125 61.9108 59.3816 61.9108C68.3508 61.9108 75.6213 54.6649 75.6213 45.7262V40.0778C72.3806 39.2785 69.6237 37.2685 67.8669 34.5468Z" stroke="white" stroke-width="2" stroke-miterlimit="10" stroke-linecap="round" stroke-linejoin="round"/>
<path d="M59.4942 74.7856L59.3803 74.6722L59.2665 74.7856H59.4942Z" stroke="white" stroke-width="2" stroke-miterlimit="10" stroke-linecap="round" stroke-linejoin="round"/>
<path d="M67.854 59.5139C65.3844 61.025 62.4904 61.9107 59.3803 61.9107C56.2703 61.9107 53.3763 61.0237 50.9067 59.5139V66.0558L59.3803 74.6735L67.854 66.0558V59.5139Z" stroke="white" stroke-width="2" stroke-miterlimit="10" stroke-linecap="round" stroke-linejoin="round"/>
<path d="M77.2035 70.8778L67.854 66.0546L59.3803 74.6722L66.6328 81.9013L77.2035 70.8778Z" stroke="white" stroke-width="2" stroke-miterlimit="10" stroke-linecap="round" stroke-linejoin="round"/>
<path d="M41.5559 70.8778L50.9067 66.0546L59.3803 74.6722L52.1266 81.9013L41.5559 70.8778Z" stroke="white" stroke-width="2" stroke-miterlimit="10" stroke-linecap="round" stroke-linejoin="round"/>
<path d="M76.2319 108.864H70.3495V94.5738C70.3495 91.3364 72.9835 88.7114 76.2319 88.7114C79.4804 88.7114 82.1143 91.3364 82.1143 94.5738V103.002C82.1156 106.239 79.4817 108.864 76.2319 108.864Z" stroke="white" stroke-width="2" stroke-miterlimit="10" stroke-linecap="round" stroke-linejoin="round"/>
<path d="M70.3495 94.5738L36.0318 103.368" stroke="white" stroke-width="2" stroke-miterlimit="10" stroke-linecap="round" stroke-linejoin="round"/>
<path d="M49.3918 99.9437V94.5725C49.3918 91.3351 46.7578 88.7101 43.5094 88.7101C40.2609 88.7101 37.627 91.3351 37.627 94.5725V103.001" stroke="white" stroke-width="2" stroke-miterlimit="10" stroke-linecap="round" stroke-linejoin="round"/>
<path d="M82.1247 102.962L83.7081 103.368" stroke="white" stroke-width="2" stroke-miterlimit="10" stroke-linecap="round" stroke-linejoin="round"/>
<path d="M49.3918 94.5738L59.8706 97.2594" stroke="white" stroke-width="2" stroke-miterlimit="10" stroke-linecap="round" stroke-linejoin="round"/>
<path d="M59.9806 111.897L85.2994 119.148C88.6772 120.115 92.0434 117.589 92.0434 114.086V99.2127C92.0434 87.5317 85.7742 77.314 76.4079 71.7081L66.634 81.9013L59.3803 74.6722L52.1266 81.9013L42.7189 72.0911C33.6967 77.7704 27.6979 87.7908 27.6979 99.2127V114.086C27.6979 117.588 31.0641 120.115 34.4419 119.148L70.3495 108.864" stroke="white" stroke-width="2" stroke-miterlimit="10" stroke-linecap="round" stroke-linejoin="round"/>
<path d="M59.3803 0.644653V7.72934" stroke="white" stroke-width="2" stroke-miterlimit="10" stroke-linecap="round" stroke-linejoin="round"/>
<path d="M71.3897 4.1864L66.3637 9.19661" stroke="white" stroke-width="2" stroke-miterlimit="10" stroke-linecap="round" stroke-linejoin="round"/>
<path d="M47.371 4.1864L52.397 9.19661" stroke="white" stroke-width="2" stroke-miterlimit="10" stroke-linecap="round" stroke-linejoin="round"/>
<path d="M35.0887 78.7799C32.262 76.0633 28.4987 74.3073 24.3278 74.0353C23.1182 74.4427 21.8271 74.6735 20.4791 74.6735C19.1311 74.6735 17.84 74.4427 16.6304 74.0353C7.7091 74.6168 0.646851 81.9928 0.646851 91.0321V97.0982C0.646851 102.651 5.16441 107.153 10.7363 107.153H27.6979" stroke="white" stroke-width="2" stroke-miterlimit="10" stroke-linecap="round" stroke-linejoin="round"/>
<path d="M20.4791 74.6722C27.1245 74.6722 32.5117 69.3033 32.5117 62.6805C32.5117 56.0576 27.1245 50.6887 20.4791 50.6887C13.8337 50.6887 8.4465 56.0576 8.4465 62.6805C8.4465 69.3033 13.8337 74.6722 20.4791 74.6722Z" stroke="white" stroke-width="2" stroke-miterlimit="10" stroke-linecap="round" stroke-linejoin="round"/>
<path d="M92.0421 107.155H109.264C114.836 107.155 119.353 102.653 119.353 97.0995V91.0334C119.353 81.9941 112.291 74.6168 103.368 74.0353C102.159 74.4427 100.868 74.6735 99.5196 74.6735C98.1716 74.6735 96.8805 74.4427 95.6709 74.0353C91.4302 74.3112 87.6112 76.1226 84.769 78.9166" stroke="white" stroke-width="2" stroke-miterlimit="10" stroke-linecap="round" stroke-linejoin="round"/>
<path d="M99.5196 74.6722C106.165 74.6722 111.552 69.3033 111.552 62.6805C111.552 56.0576 106.165 50.6887 99.5196 50.6887C92.8742 50.6887 87.487 56.0576 87.487 62.6805C87.487 69.3033 92.8742 74.6722 99.5196 74.6722Z" stroke="white" stroke-width="2" stroke-miterlimit="10" stroke-linecap="round" stroke-linejoin="round"/>
</g>
<defs>
<clipPath id="clip0_291_3491">
<rect width="120" height="120" fill="white"/>
</clipPath>
</defs>
</svg>
