<svg width="120" height="120" viewBox="0 0 120 120" fill="none" xmlns="http://www.w3.org/2000/svg">
<g clip-path="url(#clip0_291_3818)">
<path d="M35.1035 103.596L19.3618 119.337" stroke="white" stroke-width="2" stroke-miterlimit="10" stroke-linecap="round" stroke-linejoin="round"/>
<path d="M65.283 73.4162L39.7187 98.9806" stroke="white" stroke-width="2" stroke-miterlimit="10" stroke-linecap="round" stroke-linejoin="round"/>
<path d="M36.1688 82.8851L50.7259 68.3267" stroke="white" stroke-width="2" stroke-miterlimit="10" stroke-linecap="round" stroke-linejoin="round"/>
<path d="M0.662537 118.39L31.7895 87.2631" stroke="white" stroke-width="2" stroke-miterlimit="10" stroke-linecap="round" stroke-linejoin="round"/>
<path d="M70.2533 68.4459L96.5279 42.1713L104.384 50.0276C105.872 51.5156 108.416 50.7603 108.851 48.7012L113.506 26.68L118.33 3.86119C118.727 1.98623 117.064 0.323277 115.19 0.720795L92.3712 5.54534L70.3501 10.2016C68.2922 10.6362 67.537 13.1803 69.0237 14.6684L76.8799 22.5246L15.9299 83.476" stroke="white" stroke-width="2" stroke-miterlimit="10" stroke-linecap="round" stroke-linejoin="round"/>
<path d="M68.0219 103.393L62.401 109.013" stroke="white" stroke-width="2" stroke-miterlimit="10" stroke-linecap="round" stroke-linejoin="round"/>
<path d="M78.2149 93.2L70.2852 101.13" stroke="white" stroke-width="2" stroke-miterlimit="10" stroke-linecap="round" stroke-linejoin="round"/>
<path d="M76.7071 102.8L81.1546 98.3525" stroke="white" stroke-width="2" stroke-miterlimit="10" stroke-linecap="round" stroke-linejoin="round"/>
<path d="M63.2782 116.229L74.3928 105.114" stroke="white" stroke-width="2" stroke-miterlimit="10" stroke-linecap="round" stroke-linejoin="round"/>
<path d="M80.5729 90.8408L89.9543 81.4593L86.7185 78.2235C86.1063 77.6114 86.3263 76.6534 87.1054 76.542L95.444 75.3561L104.085 74.1265C104.795 74.0258 105.48 74.7108 105.378 75.4197L104.148 84.0604L102.962 92.399C102.851 93.1782 101.894 93.3995 101.281 92.786L98.0451 89.5502L76.2837 111.316" stroke="white" stroke-width="2" stroke-miterlimit="10" stroke-linecap="round" stroke-linejoin="round"/>
<path fill-rule="evenodd" clip-rule="evenodd" d="M39.5265 26.8059C39.9651 26.2004 40.67 25.8399 41.4187 25.8399C42.708 25.8399 43.7521 26.8814 43.7521 28.1681V46.389C43.7521 47.9168 42.5105 49.1557 40.9788 49.1557C40.1625 49.1557 39.3887 48.7979 38.8626 48.1765L23.9663 30.6208V44.5127L28.8359 40.1108C29.4335 39.5477 30.3359 40.3268 29.8615 40.9986L24.6646 48.1897C24.226 48.7953 23.5211 49.1557 22.7725 49.1557C21.4832 49.1557 20.439 48.1129 20.439 46.8276V28.6053C20.439 27.0776 21.6806 25.8386 23.2124 25.8386C24.0273 25.8386 24.8024 26.1964 25.3285 26.8178L40.2275 44.3722V30.4816L35.3579 34.8835C34.7603 35.4466 33.8579 34.6675 34.3323 33.997L39.5265 26.8059Z" fill="white"/>
</g>
<path d="M6.1532 22.0774L32 7.1547L57.8468 22.0774L57.8468 41.5819L32.3356 66.7573L6.1532 51.9173V22.0774Z" stroke="white" stroke-width="2"/>
<defs>
<clipPath id="clip0_291_3818">
<rect width="119.053" height="120" fill="white"/>
</clipPath>
</defs>
</svg>
