<svg width="121" height="120" viewBox="0 0 121 120" fill="none" xmlns="http://www.w3.org/2000/svg">
<g clip-path="url(#clip0_291_3530)">
<path fill-rule="evenodd" clip-rule="evenodd" d="M43.4319 87.19L33.0379 76.7961L95.3155 14.5185C101.964 7.86986 110.285 3.13953 119.4 0.827759C117.088 9.9429 112.358 18.2651 105.709 24.9137L43.4319 87.19Z" stroke="white" stroke-width="2" stroke-miterlimit="10" stroke-linecap="round" stroke-linejoin="round"/>
<path fill-rule="evenodd" clip-rule="evenodd" d="M28.0556 92.1735C25.8554 89.9733 24.7181 87.8043 24.1711 85.6641L2.9812 106.853C0.111573 109.722 0.111573 114.376 2.9812 117.247C5.85082 120.116 10.5044 120.116 13.3752 117.247L34.5651 96.0569C32.4248 95.5098 30.2558 94.3737 28.0556 92.1735Z" stroke="white" stroke-width="2" stroke-miterlimit="10" stroke-linecap="round" stroke-linejoin="round"/>
<path fill-rule="evenodd" clip-rule="evenodd" d="M38.2349 81.993L20.662 64.4202C29.4484 73.2066 18.2603 82.3769 28.0556 92.1735C37.851 101.97 47.0213 90.7806 55.8089 99.5671L38.2349 81.993Z" stroke="white" stroke-width="2" stroke-miterlimit="10" stroke-linecap="round" stroke-linejoin="round"/>
<path d="M60.1146 49.7206L24.9137 14.5197C18.2651 7.87108 9.94292 3.14076 0.828979 0.828979C3.14076 9.94292 7.86988 18.2639 14.5197 24.9137L49.7206 60.1146" stroke="white" stroke-width="2" stroke-miterlimit="10" stroke-linecap="round" stroke-linejoin="round"/>
<path d="M60.1146 70.5085L76.7961 87.19L87.1901 76.796L70.5086 60.1145" stroke="white" stroke-width="2" stroke-miterlimit="10" stroke-linecap="round" stroke-linejoin="round"/>
<path fill-rule="evenodd" clip-rule="evenodd" d="M92.1735 92.1735C94.3737 89.9733 95.511 87.8043 96.0581 85.6641L117.248 106.854C120.118 109.724 120.118 114.377 117.248 117.248C114.378 120.118 109.725 120.118 106.854 117.248L85.6629 96.0569C87.8031 95.5098 89.9721 94.3737 92.1735 92.1735Z" stroke="white" stroke-width="2" stroke-miterlimit="10" stroke-linecap="round" stroke-linejoin="round"/>
<path fill-rule="evenodd" clip-rule="evenodd" d="M81.9931 81.993L99.5659 64.4202C90.7795 73.2066 101.968 82.3769 92.1723 92.1735C82.377 101.97 73.2066 90.7806 64.419 99.5671L81.9931 81.993Z" stroke="white" stroke-width="2" stroke-miterlimit="10" stroke-linecap="round" stroke-linejoin="round"/>
<path d="M60.1146 4.58875V20.7268" stroke="white" stroke-width="2" stroke-miterlimit="10" stroke-linecap="round" stroke-linejoin="round"/>
<path d="M78.8931 12.6578L67.4818 24.0692" stroke="white" stroke-width="2" stroke-miterlimit="10" stroke-linecap="round" stroke-linejoin="round"/>
<path d="M41.336 12.6578L52.7474 24.0692" stroke="white" stroke-width="2" stroke-miterlimit="10" stroke-linecap="round" stroke-linejoin="round"/>
</g>
<defs>
<clipPath id="clip0_291_3530">
<rect width="120.229" height="120" fill="white"/>
</clipPath>
</defs>
</svg>
