<svg width="40" height="31" viewBox="0 0 40 31" fill="none" xmlns="http://www.w3.org/2000/svg">
<path d="M24.171 16.3506H14.9403C11.4391 16.3506 8.60083 19.1725 8.60083 22.6535V30.2222H30.5103V22.6535C30.5103 19.1724 27.6721 16.3506 24.171 16.3506Z" fill="#8223FA"/>
<path d="M25.7223 6.0392C25.7223 9.37453 23.0028 13.6607 19.6481 13.6607C16.2934 13.6607 13.5739 9.37463 13.5739 6.0392C13.5739 2.70377 16.2934 0 19.6481 0C23.0028 0 25.7223 2.70388 25.7223 6.0392Z" fill="#8223FA"/>
<path d="M35.8041 8.35037C35.8041 10.654 33.9258 13.6144 31.6088 13.6144C29.2917 13.6144 27.4134 10.654 27.4134 8.35037C27.4134 6.04671 29.2917 4.1792 31.6088 4.1792C33.9258 4.1792 35.8041 6.04671 35.8041 8.35037Z" fill="#8223FA"/>
<path d="M11.8256 8.35037C11.8256 10.654 9.94725 13.6144 7.63024 13.6144C5.31322 13.6144 3.43488 10.654 3.43488 8.35037C3.43488 6.04671 5.31322 4.1792 7.63024 4.1792C9.94725 4.1792 11.8256 6.04671 11.8256 8.35037Z" fill="#8223FA"/>
<path d="M34.7325 15.4724H28.3571C28.2119 15.4724 28.0683 15.4798 27.9267 15.4936C30.5209 16.8442 32.2961 19.5459 32.2961 22.6535V25.0533H39.1112V19.8257C39.1111 17.4215 37.1508 15.4724 34.7325 15.4724Z" fill="#8223FA"/>
<path d="M6.81507 22.6535C6.81507 19.5459 8.59032 16.8442 11.1845 15.4936C11.0429 15.4798 10.8994 15.4724 10.7541 15.4724H4.37858C1.96035 15.4724 0 17.4215 0 19.8257V25.0533H6.81507V22.6535Z" fill="#8223FA"/>
</svg>
