<svg width="29" height="30" viewBox="0 0 29 30" fill="none" xmlns="http://www.w3.org/2000/svg">
<path d="M28.4446 29.2098L28.329 28.799L26.853 22.7425L12.532 10.4328L12.475 10.3837L12.4004 10.3739C11.844 10.3007 11.2484 9.98249 10.7663 9.50085C10.4404 9.17522 10.1903 8.79825 10.0393 8.41649L11.8315 6.62597L10.4954 5.29107L8.37597 7.40851C7.60101 6.63428 4.46426 3.50047 4.35119 3.38751C4.22423 3.26067 4.20575 3.17204 4.17776 3.03783C4.16956 2.99846 4.16083 2.9567 4.14895 2.91272C4.16531 2.36173 3.96361 1.80547 3.54265 1.38494C2.73226 0.575276 1.41833 0.575327 0.607988 1.38494C-0.202431 2.19457 -0.202406 3.50724 0.607988 4.31688C1.02892 4.73744 1.58573 4.93895 2.13723 4.9226C2.18125 4.93445 2.22303 4.94318 2.26241 4.95139C2.39671 4.97938 2.48545 4.99784 2.61241 5.12466C2.72548 5.23759 5.86223 8.37143 6.63719 9.14566L4.51776 11.2631L5.85391 12.598L7.61939 10.8342C8.0015 10.985 8.37885 11.2349 8.70476 11.5605C9.18685 12.0421 9.50538 12.6372 9.57866 13.193L9.58845 13.2675L21.9059 27.5706L21.9588 27.632L28.021 29.1067L28.4322 29.2221L28.4282 29.2057L28.4446 29.2098Z" fill="#8223FA"/>
<path d="M1.59166 22.7426L0.115542 28.7992L0 29.2099L0.0164434 29.2059L0.0124228 29.2223L0.423586 29.1069L6.48583 27.6322L6.53866 27.5708L13.2022 19.8331L9.70333 15.7701L1.59166 22.7426Z" fill="#8223FA"/>
<path d="M18.8561 13.2676L18.8659 13.1931C18.9392 12.6373 19.2577 12.0422 19.7398 11.5606C20.0694 11.2313 20.4516 10.9794 20.8381 10.8292L22.6087 12.5981L23.9449 11.2632L21.8164 9.13674C22.6058 8.34806 25.7195 5.23729 25.8322 5.12477C25.9591 4.99793 26.0479 4.97947 26.1822 4.9515C26.2215 4.94329 26.2633 4.93458 26.3073 4.92271C26.8588 4.93906 27.4157 4.73752 27.8366 4.31699C28.647 3.50733 28.647 2.19468 27.8366 1.38505C27.0262 0.57544 25.7123 0.575414 24.9019 1.38505C24.481 1.80559 24.2793 2.36185 24.2956 2.91283C24.2837 2.95678 24.275 2.99857 24.2668 3.03795C24.2388 3.17212 24.2203 3.26078 24.0934 3.38762C23.9808 3.50014 20.867 6.61094 20.0776 7.39959L17.9672 5.29119L16.6311 6.62608L18.4103 8.40365C18.26 8.78982 18.0078 9.17163 17.6782 9.50096C17.1961 9.9826 16.6005 10.3008 16.0442 10.374L15.9696 10.3838L15.9125 10.4329L15.4077 10.8668L18.5774 13.5913L18.8561 13.2676Z" fill="#8223FA"/>
</svg>
