<svg width="20" height="22" viewBox="0 0 20 22" fill="none" xmlns="http://www.w3.org/2000/svg">
<path fill-rule="evenodd" clip-rule="evenodd" d="M15.4892 22L15.4878 19.8508C15.0734 19.8051 14.3716 19.5998 14.3716 19.0853C13.6255 18.7398 11.4715 17.3343 11.4431 16.4573C12.8405 16.3611 12.7635 15.7259 11.5532 15.662C11.7687 13.9631 13.2788 13.1624 14.7203 12.5416C15.5471 12.1856 16.183 11.6972 16.7852 11.1292C19.3451 8.71538 19.969 4.36402 20 1.08184H16.972C16.9911 1.49943 17.0494 1.87497 16.783 2.16482C16.5786 2.38709 16.1071 2.60717 15.7263 2.60659C15.7376 1.74097 15.7489 0.875161 15.7602 0.00951121C11.9262 0.00626506 8.09239 0.00314876 4.25856 0L4.27999 2.60678C3.89286 2.60678 3.4544 2.40134 3.24013 2.18196C2.95547 1.89065 3.01512 1.51309 3.03484 1.08184H0C0.00521278 1.58289 0.039381 2.06357 0.0601196 2.56656C0.0823059 3.10487 0.171959 3.58585 0.201422 4.10277L0.455757 5.60739C0.508238 5.95729 0.697823 6.66865 0.829535 7.0294C1.64017 9.24908 2.5164 11.0028 4.80289 12.3043C6.03812 13.0074 8.22982 13.8193 8.45314 15.6621C7.0989 15.7359 7.25287 16.3747 8.56461 16.4566C8.53667 17.0218 7.65173 17.7665 7.34049 17.9923C6.83519 18.359 6.24786 18.8012 5.63535 19.0849C5.6039 19.4836 5.41269 19.8225 4.46538 19.845L4.46422 22H15.4892V22ZM6.22532 11.8075C5.66188 11.7712 4.3459 10.8134 3.90477 10.3245C3.29946 9.65374 2.76784 8.92635 2.3929 8.06375C1.73797 6.55738 1.45099 5.29164 1.26473 3.69048C1.21688 3.27919 1.10877 2.39004 1.14551 2.00537L1.94507 1.99612C2.14085 2.53751 2.25138 2.75789 2.65828 3.05748C3.04461 3.34187 3.42317 3.46938 3.96206 3.58037C4.45115 3.68116 4.34536 3.52434 4.38347 4.04002C4.40298 4.30608 4.43639 4.55908 4.46357 4.83708C4.63296 6.57088 5.12588 8.89775 5.7296 10.542C5.79891 10.7308 5.89718 11.0087 5.97561 11.1869C6.0379 11.3281 6.21243 11.676 6.22532 11.8075ZM13.7909 11.7992C13.8415 11.5384 14.0441 11.1551 14.1468 10.8722C14.581 9.67682 14.7151 9.28881 15.0176 7.97237C15.1722 7.29983 15.3088 6.60207 15.4096 5.90224C15.4493 5.62625 15.6228 3.74037 15.6717 3.66873C15.7479 3.58131 15.8621 3.62286 16.08 3.57573C16.4658 3.4922 16.8924 3.36671 17.2106 3.15477C17.6873 2.83736 17.8869 2.56183 18.0609 2.0032L18.8623 1.99654C18.8974 2.38407 18.7946 3.27146 18.7452 3.66532C18.6088 4.75018 18.4656 5.64683 18.1301 6.6942C17.6032 8.33977 16.6775 10.1659 15.1078 11.1614C14.7911 11.3622 14.2129 11.7382 13.7909 11.7992Z" fill="currentColor"/>
</svg>
