<svg width="22" height="23" viewBox="0 0 22 23" fill="none" xmlns="http://www.w3.org/2000/svg">
<path fill-rule="evenodd" clip-rule="evenodd" d="M4.5 0.884766C2.02 0.884766 0 2.89112 0 5.35436V12.0044V13.1112V18.2665C0 20.7298 2.02 22.7361 4.5 22.7361H17.5C19.98 22.7361 22 20.7298 22 18.2665V5.35436C22 2.89112 19.98 0.884766 17.5 0.884766H4.5ZM15.4622 5.43386C15.7258 5.07247 16.1486 4.85774 16.5987 4.85774C17.3728 4.85774 18 5.47924 18 6.24629V17.1134C18 18.0243 17.2544 18.7631 16.3351 18.7631C15.8453 18.7631 15.3806 18.5495 15.0645 18.1793L6.1184 7.70955V15.9943L9.04217 13.3694C9.40128 13.0335 9.94303 13.4984 9.6582 13.8985L6.53784 18.187C6.27423 18.5484 5.85144 18.7631 5.40128 18.7631C4.6272 18.7631 4 18.1411 4 17.3746V6.5075C4 5.59656 4.7456 4.85774 5.6649 4.85774C6.15415 4.85774 6.61938 5.07136 6.93549 5.4416L15.8816 15.9113V7.62653L12.9578 10.2514C12.5987 10.5874 12.057 10.1225 12.3418 9.72236L15.4622 5.43386Z" fill="#AAA5A5"/>
</svg>
