<svg width="16" height="16" viewBox="0 0 16 16" fill="none" xmlns="http://www.w3.org/2000/svg">
<path d="M2.34398 7.3584H0.923373C0.413398 7.3584 0 7.7718 0 8.2818V14.4205C0 14.9305 0.413398 15.3439 0.923373 15.3439H2.34398C2.85393 15.3439 3.26735 14.9305 3.26735 14.4205V8.2818C3.26735 7.7718 2.85393 7.3584 2.34398 7.3584Z" fill="#8424FE"/>
<path d="M14.0242 8.72701H13.7657C14.4604 8.72701 15.0235 8.19729 15.0235 7.54382C15.0235 6.8904 14.4604 6.36066 13.7657 6.36066H9.24285C9.21202 6.30876 9.1956 6.24828 9.19957 6.17685C9.23404 5.55655 10.0611 4.54568 10.4402 3.71862C10.8193 2.89156 10.4746 1.76583 10.13 0.869817C9.78541 -0.0261725 8.95835 -0.173252 8.30351 0.171387C7.87744 0.395727 7.95037 1.11735 7.97997 1.5096C8.01869 2.02242 8.14783 2.55477 7.86237 3.02291C7.55869 3.52091 7.09282 3.91685 6.66757 4.3066C6.09676 4.82975 5.52475 5.3739 5.07934 6.01091C4.77355 6.44825 4.30984 7.04835 4.30437 7.6036C4.30223 7.82213 4.32077 8.0426 4.32077 8.26248C4.32077 8.71665 4.32077 9.17083 4.32077 9.625C4.32077 10.6733 4.32077 11.7216 4.32077 12.7699C4.32077 13.2775 4.32077 13.7851 4.32077 14.2927C4.32077 14.8656 4.76182 15.3299 5.30587 15.3299H6.76737C6.81891 15.3381 6.87134 15.3436 6.92515 15.3436H13.0592C13.6112 15.3436 14.0586 14.8961 14.0586 14.3442V14.1374C14.0586 13.5855 13.6112 13.138 13.0592 13.138H13.6451C14.197 13.138 14.6445 12.6906 14.6445 12.1386V11.9319C14.6445 11.38 14.197 10.9325 13.6451 10.9325H14.0242C14.5761 10.9325 15.0235 10.4851 15.0235 9.93313V9.72637C15.0235 9.17446 14.5761 8.72701 14.0242 8.72701Z" fill="#8424FE"/>
</svg>
