<svg width="10" height="10" viewBox="0 0 10 10" fill="none" xmlns="http://www.w3.org/2000/svg">
<g clip-path="url(#clip0_1_14046)">
<path d="M9.99999 9.99565L9.95937 9.85124L9.44043 7.72198L4.40573 3.39437L4.38567 3.37711L4.35944 3.37367C4.16384 3.34793 3.95447 3.23605 3.78498 3.06673C3.67039 2.95225 3.58245 2.81972 3.52939 2.68551L4.15946 2.05603L3.68972 1.58673L2.94461 2.33114C2.67217 2.05895 1.5694 0.95722 1.52965 0.917507C1.48502 0.872914 1.47852 0.841756 1.46868 0.794574C1.4658 0.780733 1.46273 0.76605 1.45855 0.750588C1.4643 0.556884 1.39339 0.361323 1.2454 0.213478C0.960495 -0.0711683 0.498567 -0.0711502 0.213681 0.213478C-0.0712316 0.498115 -0.0712226 0.959601 0.213681 1.24424C0.361665 1.39209 0.557418 1.46294 0.751305 1.45719C0.766781 1.46135 0.781469 1.46442 0.795314 1.46731C0.842531 1.47715 0.873728 1.48364 0.918362 1.52822C0.958112 1.56793 2.06088 2.66967 2.33332 2.94186L1.58821 3.68627L2.05795 4.15557L2.67863 3.53547C2.81296 3.58849 2.94563 3.67634 3.0602 3.79082C3.22969 3.96014 3.34167 4.16934 3.36743 4.36474L3.37088 4.39095L7.70124 9.41938L7.71981 9.44097L9.85108 9.95941L9.99562 9.99999L9.99422 9.99423L9.99999 9.99565Z" fill="currentColor"/>
<path d="M0.559569 7.72176L0.0406203 9.85102L0 9.99543L0.0057809 9.99403L0.00436739 9.99979L0.148917 9.95921L2.28017 9.44077L2.29875 9.41917L4.64141 6.69888L3.41133 5.27051L0.559569 7.72176Z" fill="currentColor"/>
<path d="M6.62932 4.39095L6.63277 4.36474C6.65853 4.16933 6.77051 3.96014 6.94 3.79081C7.05587 3.67504 7.19023 3.58648 7.32612 3.53367L7.9486 4.15556L8.41834 3.68627L7.67005 2.93868C7.94758 2.66141 9.04223 1.56778 9.08184 1.52822C9.12647 1.48363 9.15767 1.47714 9.20488 1.46731C9.21873 1.46442 9.23342 1.46136 9.24889 1.45718C9.44278 1.46293 9.63853 1.39208 9.78652 1.24423C10.0714 0.959588 10.0714 0.498111 9.78652 0.213474C9.50163 -0.0711536 9.0397 -0.0711627 8.7548 0.213474C8.60681 0.361319 8.53589 0.55688 8.54165 0.750585C8.53747 0.766038 8.5344 0.78073 8.53152 0.794571C8.52167 0.841743 8.51517 0.872911 8.47055 0.917504C8.43095 0.957063 7.33629 2.0507 7.05876 2.32796L6.31682 1.58673L5.84708 2.05602L6.47259 2.68095C6.41973 2.81671 6.33109 2.95094 6.21521 3.06672C6.04572 3.23605 5.83634 3.34793 5.64075 3.37367L5.61452 3.37711L5.59446 3.39437L5.41699 3.54691L6.53133 4.50475L6.62932 4.39095Z" fill="currentColor"/>
</g>
<defs>
<clipPath id="clip0_1_14046">
<rect width="10" height="10" fill="white"/>
</clipPath>
</defs>
</svg>
