<svg width="25" height="25" viewBox="0 0 25 25" fill="none" xmlns="http://www.w3.org/2000/svg">
<path d="M6 1.5C3.52 1.5 1.5 3.52 1.5 6V12.6953L8.22461 16.0547C8.46961 16.1747 8.57031 16.4746 8.44531 16.7246C8.36031 16.8996 8.185 17 8 17C7.925 17 7.85039 16.9853 7.77539 16.9453L1.5 13.8096V19C1.5 21.48 3.52 23.5 6 23.5H19C21.48 23.5 23.5 21.48 23.5 19V6C23.5 3.52 21.48 1.5 19 1.5H6ZM15.75 4.5C18.37 4.5 20.5 6.63 20.5 9.25C20.5 11.87 18.37 14 15.75 14C15.2 14 14.67 13.9096 14.165 13.7246L11.79 15.5146C11.93 15.9096 12 16.325 12 16.75C12 18.82 10.32 20.5 8.25 20.5C6.18 20.5 4.5 18.82 4.5 16.75C4.5 16.64 4.50477 16.5347 4.50977 16.4297L7.33008 17.8398C7.54008 17.9448 7.77 18 8 18C8.57 18 9.08484 17.6799 9.33984 17.1699C9.70984 16.4299 9.40992 15.5302 8.66992 15.1602L5.94531 13.7949C6.58031 13.2949 7.38 13 8.25 13C8.7 13 9.14457 13.0803 9.55957 13.2353L11.2852 10.875C11.0952 10.355 11 9.81 11 9.25C11 6.63 13.13 4.5 15.75 4.5ZM15.75 6.5C14.2371 6.5 13 7.73714 13 9.25C13 10.7629 14.2371 12 15.75 12C17.2629 12 18.5 10.7629 18.5 9.25C18.5 7.73714 17.2629 6.5 15.75 6.5ZM15.75 7.5C16.7224 7.5 17.5 8.27758 17.5 9.25C17.5 10.2224 16.7224 11 15.75 11C14.7776 11 14 10.2224 14 9.25C14 8.27758 14.7776 7.5 15.75 7.5Z" fill="#AAA5A5"/>
</svg>
