<svg width="22" height="22" viewBox="0 0 22 22" fill="none" xmlns="http://www.w3.org/2000/svg">
<path fill-rule="evenodd" clip-rule="evenodd" d="M10 0H0V10H10V0ZM6 4H4V6H6V4Z" fill="white"/>
<path fill-rule="evenodd" clip-rule="evenodd" d="M22 12H12V22H22V12ZM18 16H16V18H18V16Z" fill="white"/>
<path fill-rule="evenodd" clip-rule="evenodd" d="M22 0H12V10H22V0ZM17 4C16.4477 4 16 4.44772 16 5C16 5.55228 16.4477 6 17 6C17.5523 6 18 5.55228 18 5C18 4.44772 17.5523 4 17 4Z" fill="white"/>
<path fill-rule="evenodd" clip-rule="evenodd" d="M10 12H0V22H10V12ZM5 16C4.44772 16 4 16.4477 4 17C4 17.5523 4.44772 18 5 18C5.55228 18 6 17.5523 6 17C6 16.4477 5.55228 16 5 16Z" fill="white"/>
</svg>
